<?xml version="1.0" encoding="UTF-8"?>
<svg version="1.1" xmlns="http://www.w3.org/2000/svg" width="1024" height="1024">
<path d="M0 0 C0.33 0.99 0.66 1.98 1 3 C2.85931559 3.80491911 2.85931559 3.80491911 5.1875 4.2890625 C12.15003153 6.19311184 18.49764672 9.29019487 25 12.375 C26.21846855 12.94591357 27.43721751 13.51622906 28.65625 14.0859375 C34.86310597 17.00046117 41.02351066 19.97909525 47.109375 23.13916016 C48.95713687 24.13812909 48.95713687 24.13812909 51 24 C53 26 53 26 54 28 C54.53367187 28.13277344 55.06734375 28.26554687 55.6171875 28.40234375 C59.04717445 29.26265195 62.02001437 30.9145716 65.125 32.5625 C65.8463916 32.945271 66.5677832 33.32804199 67.31103516 33.72241211 C74.47379323 37.59859753 81.43408756 41.80604546 88.375 46.0625 C89.45539551 46.72258057 90.53579102 47.38266113 91.64892578 48.06274414 C98.67275892 52.40972958 105.37612086 57.06850824 112 62 C113.03253906 62.7425 114.06507813 63.485 115.12890625 64.25 C124.79481529 71.20076605 133.93976252 78.71906142 142.9921875 86.44140625 C144.77888776 87.96126167 146.57304641 89.47252843 148.3828125 90.96484375 C149.95721772 92.26834929 151.48598071 93.62681972 153 95 C153 95.66 153 96.32 153 97 C153.58394531 97.25910156 154.16789062 97.51820313 154.76953125 97.78515625 C161.85408263 101.64381733 167.00248797 109.29090213 171.921875 115.484375 C173.89437184 117.96535011 173.89437184 117.96535011 175.921875 119.8671875 C178.78237756 122.80296644 181.10300531 126.05708909 183.5 129.375 C183.97308594 130.02210938 184.44617188 130.66921875 184.93359375 131.3359375 C187.0926188 134.3023542 189.2067445 137.28325411 191.21875 140.3515625 C192.88693595 143.01501616 192.88693595 143.01501616 195 145 C195.90157213 146.80314426 196.79905015 148.60841439 197.6796875 150.421875 C199.26346117 153.5144508 201.00184474 156.49728626 202.75 159.5 C216.12303876 182.71699443 225.89128901 207.42074452 231.45703125 233.6640625 C231.90562428 236.00549642 231.90562428 236.00549642 233 238 C233.18622667 239.51641716 233.32352435 241.03894792 233.4375 242.5625 C233.76089937 246.63231435 234.20777423 250.66649841 234.74507141 254.71340942 C235.99694658 264.37186181 236.35904916 273.89361118 236.3125 283.625 C236.31100952 284.40447998 236.30951904 285.18395996 236.3079834 285.98706055 C236.26288757 299.18600388 235.34607105 311.99270109 233 325 C232.7831958 326.27302979 232.7831958 326.27302979 232.56201172 327.57177734 C224.74820659 373.02683639 204.38102852 413.74276577 175 449 C174.30003906 449.87785156 173.60007812 450.75570313 172.87890625 451.66015625 C171.03800978 453.95266558 169.1857618 456.03281438 167 458 C166.34 458 165.68 458 165 458 C164.62875 458.86625 164.62875 458.86625 164.25 459.75 C162.81700012 462.32939979 161.21575324 464.06121592 159 466 C158.34 466 157.68 466 157 466 C157 466.66 157 467.32 157 468 C155.5390625 469.5078125 155.5390625 469.5078125 153.625 471.125 C152.99851562 471.66382813 152.37203125 472.20265625 151.7265625 472.7578125 C150 474 150 474 148 474 C148 474.66 148 475.32 148 476 C146.28515625 477.4375 146.28515625 477.4375 144.0625 479 C141.01367363 481.04816804 141.01367363 481.04816804 139 484 C137.38320906 484.92879479 135.76303261 485.85205582 134.12890625 486.75 C131.81478321 488.10875114 129.67644029 489.61784691 127.5 491.1875 C111.38094071 502.56992417 93.57033761 511.96575168 75.4375 519.6875 C74.64633789 520.026604 73.85517578 520.36570801 73.04003906 520.71508789 C72.30366211 521.01922607 71.56728516 521.32336426 70.80859375 521.63671875 C70.16720459 521.90186279 69.52581543 522.16700684 68.86499023 522.44018555 C67 523 67 523 63 523 C62.67 523.66 62.34 524.32 62 525 C59.40027721 525.82006465 56.84751103 526.52059593 54.203125 527.1640625 C53.4173407 527.36099701 52.6315564 527.55793152 51.82196045 527.76083374 C50.15507742 528.17655264 48.48717211 528.58819025 46.81835938 528.99609375 C44.2719785 529.61961819 41.72966361 530.25796227 39.1875 530.8984375 C37.56793024 531.30037437 35.94814497 531.70144406 34.328125 532.1015625 C33.56961243 532.2921524 32.81109985 532.48274231 32.02960205 532.67910767 C28.28502304 533.58625178 24.85863439 534.23128963 21 534 C20.67 534.66 20.34 535.32 20 536 C18.1640625 536.34375 18.1640625 536.34375 15.625 536.5 C11.95110895 536.76174094 8.29739494 537.06702849 4.640625 537.50390625 C-5.96244314 538.75806814 -16.32640568 539.24599833 -27 539 C-27.33 539.66 -27.66 540.32 -28 541 C-28.80497925 540.76120117 -28.80497925 540.76120117 -29.6262207 540.51757812 C-32.44392971 539.9032057 -35.09707183 539.8017064 -37.98046875 539.71875 C-39.7274707 539.66267578 -39.7274707 539.66267578 -41.50976562 539.60546875 C-43.33024414 539.55326172 -43.33024414 539.55326172 -45.1875 539.5 C-52.20728481 539.29542991 -59.15739519 539.07748033 -66.12963867 538.20947266 C-68.61408456 537.93122509 -71.06449045 537.90231677 -73.5625 537.9375 C-74.83287109 537.95103516 -74.83287109 537.95103516 -76.12890625 537.96484375 C-76.74636719 537.97644531 -77.36382812 537.98804688 -78 538 C-78 537.34 -78 536.68 -78 536 C-78.97259766 535.97873047 -78.97259766 535.97873047 -79.96484375 535.95703125 C-92.18748101 535.36276374 -104.06055512 532.53303243 -116 530 C-116.33 530.66 -116.66 531.32 -117 532 C-117 531.01 -117 530.02 -117 529 C-118.1446875 528.88785156 -119.289375 528.77570312 -120.46875 528.66015625 C-125.00427203 528.093216 -129.17111004 526.86843862 -133.5 525.4375 C-134.22703125 525.20353516 -134.9540625 524.96957031 -135.703125 524.72851562 C-137.47080261 524.15867219 -139.23570969 523.58024596 -141 523 C-141.33 523.66 -141.66 524.32 -142 525 C-142.33 524.34 -142.66 523.68 -143 523 C-145.5218844 521.88359309 -145.5218844 521.88359309 -148.609375 520.87109375 C-149.75664062 520.47599609 -150.90390625 520.08089844 -152.0859375 519.67382812 C-153.89964844 519.0618457 -153.89964844 519.0618457 -155.75 518.4375 C-156.94367188 518.02564453 -158.13734375 517.61378906 -159.3671875 517.18945312 C-166.58047841 514.71376672 -166.58047841 514.71376672 -174 513 C-174 512.34 -174 511.68 -174 511 C-174.96099609 510.72736328 -174.96099609 510.72736328 -175.94140625 510.44921875 C-181.13481682 508.93995637 -186.13588856 507.38030985 -191 505 C-191.33 504.34 -191.66 503.68 -192 503 C-194.17560008 502.30069997 -196.30090148 501.95596564 -198.5625 501.625 C-201 501 -201 501 -202.2421875 499.66796875 C-204.71830642 497.31840701 -207.48794815 496.15559007 -210.5625 494.6875 C-215.85482541 492.1301255 -220.87661283 489.365939 -225.81640625 486.1640625 C-228.21100384 484.88751495 -230.32866204 484.40375231 -233 484 C-233 483.34 -233 482.68 -233 482 C-234.431373 480.71369461 -234.431373 480.71369461 -236.33203125 479.4609375 C-237.04294922 478.96682373 -237.75386719 478.47270996 -238.48632812 477.96362305 C-239.6377832 477.17725464 -239.6377832 477.17725464 -240.8125 476.375 C-242.38189172 475.2857054 -243.95090214 474.19586125 -245.51953125 473.10546875 C-246.28861816 472.57356934 -247.05770508 472.04166992 -247.85009766 471.49365234 C-255.41619099 466.23708194 -262.77181417 460.71115918 -270 455 C-269.49895039 450.5688425 -268.06423223 448.55626888 -265 445.375 C-260.8583341 440.95766062 -257.01035028 436.39181485 -253.21484375 431.67578125 C-250.45592245 428.34269291 -247.52411458 425.193818 -244.53125 422.0703125 C-242.78046803 419.70318381 -242.36309295 417.8946577 -242 415 C-241.1646875 414.938125 -241.1646875 414.938125 -240.3125 414.875 C-237.65731286 414.09183453 -237.65731286 414.09183453 -235.5625 411 C-233 408 -233 408 -230.1875 407.125 C-229.1046875 407.063125 -229.1046875 407.063125 -228 407 C-228.33 407.99 -228.66 408.98 -229 410 C-228.03126953 410.32484375 -228.03126953 410.32484375 -227.04296875 410.65625 C-222.84349784 412.51070185 -219.15493852 415.00223972 -215.3125 417.5 C-196.65671918 429.41434548 -177.18633382 440.03662925 -156.13256836 447.09228516 C-154 448 -154 448 -153 450 C-151.33858691 450.35860203 -149.66989918 450.68325783 -148 451 C-144.83105706 451.99359326 -141.70156287 453.10366925 -138.5625 454.1875 C-103.9745516 465.85826167 -68.65090249 472.22234058 -32.125 472.25 C-31.31529755 472.25067474 -30.50559509 472.25134949 -29.6713562 472.25204468 C11.65895804 472.19767271 57.52996438 462.68379147 91 437 C92.27423828 436.03513672 92.27423828 436.03513672 93.57421875 435.05078125 C99.64000351 430.32262743 105.37775651 425.24398857 111 420 C111.86367188 419.21367188 112.72734375 418.42734375 113.6171875 417.6171875 C119.47888688 412.06131591 124.33022435 406.15560608 129.0625 399.625 C129.62300049 398.85164307 130.18350098 398.07828613 130.76098633 397.28149414 C133.33378834 393.64536759 135.62562991 390.285303 137 386 C137.66 386 138.32 386 139 386 C139.24234375 385.35546875 139.4846875 384.7109375 139.734375 384.046875 C141.06108961 380.85293242 142.54998622 377.77595422 144.07104492 374.67138672 C167.43790726 326.67955805 172.05984642 269.78513568 155.14697266 218.94262695 C146.2956914 193.45660379 134.11014623 170.79310582 116.5625 150.1875 C116.0787793 149.61902344 115.59505859 149.05054688 115.09667969 148.46484375 C112.97719311 146.03752348 110.88448856 143.90993161 108.33984375 141.92578125 C105.79089255 139.82789654 104.67043375 137.81775798 103 135 C100.81919262 132.89771457 100.81919262 132.89771457 98.25 130.9375 C97.2703125 130.16148437 96.290625 129.38546875 95.28125 128.5859375 C94.75144531 128.17053711 94.22164062 127.75513672 93.67578125 127.32714844 C91.92275239 125.93882313 90.19445947 124.52367493 88.46875 123.1015625 C62.86080665 102.0861631 32.50667768 85.78639794 2 73 C-1.92702241 71.25182974 -5.83867472 69.47046109 -9.75 67.6875 C-10.7709375 67.22666016 -11.791875 66.76582031 -12.84375 66.29101562 C-36.58839269 55.45827572 -36.58839269 55.45827572 -40.90234375 46.02734375 C-42.85210008 39.61736051 -42.15934711 33.04875406 -39.375 27 C-34.10101203 17.43852541 -25.96526343 6.76110537 -15.5859375 2.609375 C-10.45261508 1.3997099 -5.23320487 1.70881704 0 2 C0 1.34 0 0.68 0 0 Z " fill="#FAFBFB" transform="translate(546,339)"/>
<path d="M0 0 C0.91477615 0.02009628 1.82955231 0.04019257 2.77204895 0.06089783 C3.74921371 0.08793289 4.72637848 0.11496796 5.7331543 0.14282227 C6.75032028 0.16643326 7.76748627 0.19004425 8.81547546 0.21437073 C12.06292506 0.29076978 15.31012435 0.37475625 18.55737305 0.45922852 C21.79393172 0.53853348 25.03052358 0.61628036 28.26713562 0.69337463 C30.27841636 0.74181662 32.28966046 0.79181355 34.30085754 0.84361267 C36.94877242 0.91021917 39.59664697 0.96906023 42.24487305 1.02172852 C43.40749161 1.04688034 43.40749161 1.04688034 44.59359741 1.07254028 C47.76719809 1.11332765 50.20856774 1.03383028 53.24487305 0.02172852 C53.57487305 0.68172852 53.90487305 1.34172852 54.24487305 2.02172852 C57.34992156 2.68487505 57.34992156 2.68487505 61.1237793 3.09204102 C62.15377296 3.22097244 62.15377296 3.22097244 63.20457458 3.35250854 C65.40454476 3.62587734 67.60582242 3.88642542 69.80737305 4.14672852 C71.29640872 4.32948189 72.78534282 4.51306491 74.27416992 4.69750977 C77.92993992 5.14855965 81.58698842 5.58812197 85.24487305 6.02172852 C85.57487305 5.36172852 85.90487305 4.70172852 86.24487305 4.02172852 C86.24487305 5.01172852 86.24487305 6.00172852 86.24487305 7.02172852 C86.80505127 7.05911133 87.36522949 7.09649414 87.94238281 7.13500977 C95.51986049 7.7558775 102.78177106 9.32283559 110.18237305 11.02172852 C112.00865234 11.43165039 112.00865234 11.43165039 113.87182617 11.84985352 C122.74901461 13.85644237 122.74901461 13.85644237 126.24487305 15.02172852 C126.24487305 14.36172852 126.24487305 13.70172852 126.24487305 13.02172852 C128.24487305 14.02172852 128.24487305 14.02172852 130.24487305 16.02172852 C132.10030339 16.84548888 132.10030339 16.84548888 134.23706055 17.52954102 C135.02467773 17.79379883 135.81229492 18.05805664 136.6237793 18.33032227 C137.44749023 18.59973633 138.27120117 18.86915039 139.11987305 19.14672852 C140.34383789 19.56245117 140.34383789 19.56245117 141.5925293 19.98657227 C142.38272461 20.24825195 143.17291992 20.50993164 143.98706055 20.77954102 C144.70748535 21.01817871 145.42791016 21.25681641 146.17016602 21.50268555 C148.53516653 22.18352637 148.53516653 22.18352637 152.24487305 22.02172852 C152.24487305 22.68172852 152.24487305 23.34172852 152.24487305 24.02172852 C152.90769287 24.18318359 153.5705127 24.34463867 154.25341797 24.51098633 C161.34182363 26.32830313 167.88360774 28.78980927 174.55737305 31.77172852 C176.05143677 32.42999634 176.05143677 32.42999634 177.57568359 33.1015625 C185.254822 36.51209306 192.79509338 40.13643673 200.24487305 44.02172852 C200.90487305 44.35172852 201.56487305 44.68172852 202.24487305 45.02172852 C203.57820638 45.68839518 204.91153971 46.35506185 206.24487305 47.02172852 C206.24487305 47.68172852 206.24487305 48.34172852 206.24487305 49.02172852 C206.94612305 49.26922852 207.64737305 49.51672852 208.36987305 49.77172852 C211.65073906 51.198192 214.38357145 52.87575232 217.24487305 55.02172852 C218.24487305 58.02172852 218.24487305 58.02172852 217.68237305 59.89672852 C215.67569512 62.86312198 213.01244409 64.77307704 210.24487305 67.02172852 C209.58487305 68.01172852 208.92487305 69.00172852 208.24487305 70.02172852 C207.58487305 70.02172852 206.92487305 70.02172852 206.24487305 70.02172852 C206.07987305 70.70235352 205.91487305 71.38297852 205.74487305 72.08422852 C203.88828479 75.72004718 201.51771285 77.59410875 198.41674805 80.18579102 C196.29741649 81.97731229 194.28972557 83.83033369 192.30737305 85.77172852 C191.74147461 86.32344727 191.17557617 86.87516602 190.5925293 87.44360352 C189.01198694 89.09439588 189.01198694 89.09439588 188.24487305 92.02172852 C186.64132333 93.63853071 184.91053466 95.01599725 183.14331055 96.45141602 C181.25003458 97.96990157 181.25003458 97.96990157 179.65893555 99.59204102 C178.18237305 101.02172852 178.18237305 101.02172852 175.24487305 103.02172852 C170.99120093 101.97893078 167.29323357 100.11544429 163.43237305 98.08422852 C159.1498854 95.89810042 155.0218613 94.19400489 150.4362793 92.79125977 C148.00816785 91.93860744 145.83521723 90.84305969 143.55737305 89.64672852 C122.01595576 78.57775409 95.39216661 72.94063311 71.61987305 69.14672852 C70.49379639 68.9666626 70.49379639 68.9666626 69.3449707 68.78295898 C64.9405643 68.13250225 60.68876815 68.01030462 56.24487305 68.02172852 C55.91487305 67.69172852 55.58487305 67.36172852 55.24487305 67.02172852 C53.35669597 66.80520652 51.46138512 66.65026497 49.56518555 66.52172852 C48.40889648 66.43922852 47.25260742 66.35672852 46.0612793 66.27172852 C44.84311523 66.18922852 43.62495117 66.10672852 42.36987305 66.02172852 C39.97640044 65.85859513 37.58315493 65.69208451 35.19018555 65.52172852 C33.58941162 65.41344727 33.58941162 65.41344727 31.95629883 65.30297852 C29.24487305 65.02172852 29.24487305 65.02172852 26.24487305 64.02172852 C25.91487305 64.68172852 25.58487305 65.34172852 25.24487305 66.02172852 C25.24487305 65.36172852 25.24487305 64.70172852 25.24487305 64.02172852 C23.98674805 64.18672852 22.72862305 64.35172852 21.43237305 64.52172852 C15.26674702 65.1595519 9.12480513 65.076597 2.93505859 64.98461914 C-1.14506402 64.94140367 -4.75439065 65.15081993 -8.75512695 66.02172852 C-10.73383488 66.06433865 -12.71387977 66.06247492 -14.69262695 66.02172852 C-21.93461462 65.88836282 -21.93461462 65.88836282 -28.75512695 68.02172852 C-30.0390332 67.99852539 -31.32293945 67.97532227 -32.64575195 67.95141602 C-38.43185079 67.89369356 -43.85786482 68.97122262 -49.50512695 70.14672852 C-50.59913818 70.37191162 -51.69314941 70.59709473 -52.8203125 70.82910156 C-69.81207592 74.4215473 -85.82759206 79.45026243 -101.79833984 86.26904297 C-103.75512695 87.02172852 -103.75512695 87.02172852 -105.94433594 87.49902344 C-106.54189697 87.67151611 -107.13945801 87.84400879 -107.75512695 88.02172852 C-108.08512695 88.68172852 -108.41512695 89.34172852 -108.75512695 90.02172852 C-111.15565455 91.26677828 -113.5584407 92.4371781 -116.00512695 93.58422852 C-128.77995221 99.78262223 -141.04196743 108.03260622 -150.9387207 118.28344727 C-152.75512695 120.02172852 -152.75512695 120.02172852 -154.75512695 120.02172852 C-155.25012695 121.50672852 -155.25012695 121.50672852 -155.75512695 123.02172852 C-156.41512695 123.02172852 -157.07512695 123.02172852 -157.75512695 123.02172852 C-157.98200195 123.57860352 -158.20887695 124.13547852 -158.44262695 124.70922852 C-159.75512695 127.02172852 -159.75512695 127.02172852 -162.0168457 129.27954102 C-171.60454219 138.88091468 -188.75512695 157.84655053 -188.75512695 172.02172852 C-189.41512695 172.02172852 -190.07512695 172.02172852 -190.75512695 172.02172852 C-207.36774327 210.37213 -212.27390447 254.90471625 -196.76098633 294.56323242 C-190.88420473 308.84487058 -183.68262464 321.16108727 -173.75512695 333.02172852 C-173.17118164 333.72942383 -172.58723633 334.43711914 -171.9855957 335.16625977 C-169.27072773 338.5676347 -169.27072773 338.5676347 -165.75512695 341.02172852 C-165.75512695 342.01172852 -165.75512695 343.00172852 -165.75512695 344.02172852 C-165.11575195 344.28985352 -164.47637695 344.55797852 -163.81762695 344.83422852 C-161.75512695 346.02172852 -161.75512695 346.02172852 -160.75512695 349.02172852 C-159.92754883 349.4277832 -159.92754883 349.4277832 -159.08325195 349.84204102 C-155.67551565 351.56877988 -153.21825854 354.25880263 -150.50512695 356.89672852 C-138.76648497 368.02048188 -125.6438249 377.01121923 -111.9909668 385.61108398 C-109.67328133 387.07336687 -107.36409682 388.54841305 -105.0559082 390.02563477 C-90.53090925 399.29779395 -75.71551473 407.95795936 -60.69262695 416.39672852 C-59.63350098 416.99211426 -58.574375 417.5875 -57.4831543 418.20092773 C-51.96904648 421.28319058 -46.43385291 424.25394611 -40.75512695 427.02172852 C-40.75512695 427.68172852 -40.75512695 428.34172852 -40.75512695 429.02172852 C-39.90305664 429.27438477 -39.05098633 429.52704102 -38.1730957 429.78735352 C-34.51190485 431.10956644 -31.42102202 432.79869334 -28.06762695 434.77172852 C-22.02661101 438.31133186 -15.90974473 441.68361423 -9.75512695 445.02172852 C40.77918052 472.49676284 40.77918052 472.49676284 44.24487305 484.02172852 C45.86258702 494.19498136 41.36230861 502.55149035 36.24487305 511.02172852 C35.91487305 511.68172852 35.58487305 512.34172852 35.24487305 513.02172852 C33.0273115 515.15572977 30.62729235 517.07539752 28.24487305 519.02172852 C27.58616211 519.56829102 26.92745117 520.11485352 26.2487793 520.67797852 C20.63297909 525.14434593 15.80696593 527.32829314 8.49487305 526.95922852 C3.3230983 526.3325871 -0.90363541 524.34877388 -5.50512695 521.98266602 C-6.24762695 521.66555664 -6.99012695 521.34844727 -7.75512695 521.02172852 C-8.41512695 521.35172852 -9.07512695 521.68172852 -9.75512695 522.02172852 C-10.08512695 521.03172852 -10.41512695 520.04172852 -10.75512695 519.02172852 C-12.45360736 517.73486617 -12.45360736 517.73486617 -14.5793457 516.64672852 C-15.36116211 516.21875977 -16.14297852 515.79079102 -16.94848633 515.34985352 C-17.77155273 514.91157227 -18.59461914 514.47329102 -19.44262695 514.02172852 C-20.24635742 513.58344727 -21.05008789 513.14516602 -21.87817383 512.69360352 C-26.1302004 510.38506252 -30.41242403 508.15449376 -34.75512695 506.02172852 C-35.08512695 506.68172852 -35.41512695 507.34172852 -35.75512695 508.02172852 C-36.41512695 508.02172852 -37.07512695 508.02172852 -37.75512695 508.02172852 C-37.98200195 507.44422852 -38.20887695 506.86672852 -38.44262695 506.27172852 C-41.35807067 501.273825 -46.01331265 499.29805028 -51.1809082 497.24438477 C-53.40251225 496.18920712 -55.35413113 495.04987041 -57.4230957 493.73266602 C-62.07508593 490.77368631 -66.89702629 488.1860749 -71.75512695 485.58422852 C-83.00173532 479.50534252 -94.04226374 473.10190671 -105.05444336 466.61010742 C-107.43284788 465.21127359 -109.81654113 463.82239888 -112.2043457 462.43969727 C-137.49123789 447.76523591 -162.26645356 432.15553022 -184.79418945 413.45532227 C-186.61937009 411.82500256 -186.61937009 411.82500256 -188.75512695 412.02172852 C-188.75512695 411.03172852 -188.75512695 410.04172852 -188.75512695 409.02172852 C-189.31329102 408.78067383 -189.87145508 408.53961914 -190.4465332 408.29125977 C-193.24404905 406.75286273 -195.33999611 404.86610887 -197.69262695 402.70922852 C-198.52665039 401.9499707 -199.36067383 401.19071289 -200.2199707 400.40844727 C-202.78455679 397.99402184 -205.27177763 395.51960035 -207.75512695 393.02172852 C-209.01066148 391.78766194 -210.26725614 390.55467343 -211.5246582 389.32250977 C-212.87240337 387.99317282 -214.22005791 386.663744 -215.56762695 385.33422852 C-216.26049805 384.65811523 -216.95336914 383.98200195 -217.66723633 383.28540039 C-218.32143555 382.63764648 -218.97563477 381.98989258 -219.6496582 381.32250977 C-220.54454956 380.44332886 -220.54454956 380.44332886 -221.45751953 379.54638672 C-222.75512695 378.02172852 -222.75512695 378.02172852 -222.75512695 376.02172852 C-223.74512695 376.02172852 -224.73512695 376.02172852 -225.75512695 376.02172852 C-226.35325195 374.92860352 -226.95137695 373.83547852 -227.56762695 372.70922852 C-229.05742686 370.07954612 -230.55786094 368.10913123 -232.75512695 366.02172852 C-232.75512695 365.36172852 -232.75512695 364.70172852 -232.75512695 364.02172852 C-233.41512695 364.02172852 -234.07512695 364.02172852 -234.75512695 364.02172852 C-236.06445313 362.45214844 -236.06445313 362.45214844 -237.5480957 360.25219727 C-238.36431396 359.05191895 -238.36431396 359.05191895 -239.19702148 357.82739258 C-239.77307129 356.96339844 -240.34912109 356.0994043 -240.94262695 355.20922852 C-241.53414551 354.32847656 -242.12566406 353.44772461 -242.73510742 352.5402832 C-243.90266999 350.79777721 -245.06714495 349.05319775 -246.22827148 347.30639648 C-247.39287675 345.56377159 -248.58222465 343.8376561 -249.7824707 342.11938477 C-267.07598586 316.70764245 -274.4645261 286.77636123 -278.3605957 256.73657227 C-278.69109624 254.09344969 -278.69109624 254.09344969 -279.33325195 251.85375977 C-279.96320627 249.11812484 -279.31046678 246.73672324 -278.75512695 244.02172852 C-279.41512695 243.69172852 -280.07512695 243.36172852 -280.75512695 243.02172852 C-280.09512695 243.02172852 -279.43512695 243.02172852 -278.75512695 243.02172852 C-278.75512695 238.07172852 -278.75512695 233.12172852 -278.75512695 228.02172852 C-279.41512695 227.69172852 -280.07512695 227.36172852 -280.75512695 227.02172852 C-280.09512695 227.02172852 -279.43512695 227.02172852 -278.75512695 227.02172852 C-278.70501465 226.2958252 -278.65490234 225.56992187 -278.60327148 224.82202148 C-278.37026926 221.51296729 -278.12531233 218.20490139 -277.88012695 214.89672852 C-277.80149414 213.75461914 -277.72286133 212.61250977 -277.6418457 211.43579102 C-277.55805664 210.32719727 -277.47426758 209.21860352 -277.38793945 208.07641602 C-277.31462402 207.06047363 -277.24130859 206.04453125 -277.16577148 204.99780273 C-276.72539311 201.8062377 -275.83412089 199.05220795 -274.75512695 196.02172852 C-274.32930894 194.47290735 -273.91974724 192.91950166 -273.52856445 191.36157227 C-267.4782031 167.86447117 -258.56819728 146.55995111 -246.22387695 125.71704102 C-244.59562847 123.24061804 -244.59562847 123.24061804 -244.75512695 121.02172852 C-243.42331482 119.68687572 -242.08959843 118.35392274 -240.75512695 117.02172852 C-239.17880414 114.8508278 -237.64426367 112.67208158 -236.13012695 110.45922852 C-231.47587969 103.79588479 -226.32197535 97.94956709 -220.75512695 92.02172852 C-219.64469884 90.73544075 -218.54002785 89.44414829 -217.44262695 88.14672852 C-210.21895258 79.84207674 -202.2546148 72.0101963 -193.75512695 65.02172852 C-192.76512695 64.03172852 -192.76512695 64.03172852 -191.75512695 63.02172852 C-190.35166793 62.06456946 -188.93299781 61.12957384 -187.50512695 60.20922852 C-184.74031914 58.3924808 -182.23778178 56.58884786 -179.69262695 54.45922852 C-170.72948593 47.02172852 -170.72948593 47.02172852 -166.75512695 47.02172852 C-166.75512695 46.36172852 -166.75512695 45.70172852 -166.75512695 45.02172852 C-165.7515918 44.52866211 -165.7515918 44.52866211 -164.7277832 44.02563477 C-160.06949433 41.71837491 -155.42912156 39.40965321 -150.8762207 36.90063477 C-123.76210008 22.02172852 -123.76210008 22.02172852 -115.75512695 22.02172852 C-115.42512695 21.36172852 -115.09512695 20.70172852 -114.75512695 20.02172852 C-112.77075195 19.38110352 -112.77075195 19.38110352 -110.00512695 18.77172852 C-105.15338318 17.63889212 -100.39276894 16.3444065 -95.61816406 14.92163086 C-86.79611715 12.30543195 -77.94553395 10.05412406 -68.94262695 8.14672852 C-67.44940918 7.82406006 -67.44940918 7.82406006 -65.92602539 7.49487305 C-60.41867557 6.36518422 -55.37590256 5.79556713 -49.75512695 6.02172852 C-49.42512695 5.36172852 -49.09512695 4.70172852 -48.75512695 4.02172852 C-46.47387695 3.67797852 -46.47387695 3.67797852 -43.25512695 3.52172852 C-42.00860352 3.44954102 -40.76208008 3.37735352 -39.4777832 3.30297852 C-38.75091309 3.26172852 -38.02404297 3.22047852 -37.27514648 3.17797852 C-32.07637688 2.85563667 -26.88501851 2.43244309 -21.69262695 2.02172852 C-20.59821289 1.93858398 -19.50379883 1.85543945 -18.3762207 1.76977539 C-16.81387695 1.64699219 -16.81387695 1.64699219 -15.2199707 1.52172852 C-14.28789795 1.44954102 -13.3558252 1.37735352 -12.39550781 1.30297852 C-9.78588757 1.07321531 -9.78588757 1.07321531 -7.38729858 0.50550842 C-4.8296557 0.03542652 -2.5938883 -0.06482312 0 0 Z " fill="#FBFCFC" transform="translate(520.755126953125,131.978271484375)"/>
<path d="M0 0 C1.05250946 0.00093658 2.10501892 0.00187317 3.18942261 0.00283813 C18.64263899 0.03269132 33.97031051 0.14237661 49.3125 2.1875 C50.44719727 2.33815918 51.58189453 2.48881836 52.75097656 2.64404297 C67.42553692 4.68032894 81.75798588 7.56863373 96.0625 11.375 C97.04964493 11.63618622 97.04964493 11.63618622 98.05673218 11.90264893 C108.93323244 14.80823244 108.93323244 14.80823244 111.3125 17.1875 C105.18048276 16.03910101 99.14979349 14.66719395 93.11694336 13.08056641 C83.55612584 10.57382985 74.00056123 8.44086334 64.25 6.8125 C63.25790527 6.64508301 62.26581055 6.47766602 61.24365234 6.30517578 C56.18597474 5.49772046 51.42626268 5.1181138 46.3125 5.1875 C45.9825 4.8575 45.6525 4.5275 45.3125 4.1875 C43.42432292 3.970978 41.52901208 3.81603645 39.6328125 3.6875 C38.47652344 3.605 37.32023438 3.5225 36.12890625 3.4375 C34.91074219 3.355 33.69257812 3.2725 32.4375 3.1875 C30.04402739 3.02436662 27.65078188 2.857856 25.2578125 2.6875 C24.19062988 2.6153125 23.12344727 2.543125 22.02392578 2.46875 C19.3125 2.1875 19.3125 2.1875 16.3125 1.1875 C15.9825 1.8475 15.6525 2.5075 15.3125 3.1875 C15.3125 2.5275 15.3125 1.8675 15.3125 1.1875 C13.4253125 1.435 13.4253125 1.435 11.5 1.6875 C5.33437397 2.32532338 -0.80756791 2.24236848 -6.99731445 2.15039062 C-11.07743707 2.10717515 -14.6867637 2.31659142 -18.6875 3.1875 C-20.66620793 3.23011013 -22.64625281 3.2282464 -24.625 3.1875 C-31.86698767 3.0541343 -31.86698767 3.0541343 -38.6875 5.1875 C-39.97140625 5.16429687 -41.2553125 5.14109375 -42.578125 5.1171875 C-48.36422383 5.05946505 -53.79023787 6.13699411 -59.4375 7.3125 C-60.53151123 7.53768311 -61.62552246 7.76286621 -62.75268555 7.99487305 C-79.74444897 11.58731879 -95.75996511 16.61603392 -111.73071289 23.43481445 C-113.6875 24.1875 -113.6875 24.1875 -115.87670898 24.66479492 C-116.77305054 24.92353394 -116.77305054 24.92353394 -117.6875 25.1875 C-118.0175 25.8475 -118.3475 26.5075 -118.6875 27.1875 C-120.98323668 28.49644721 -123.2602564 29.70551828 -125.625 30.875 C-126.27146484 31.20822266 -126.91792969 31.54144531 -127.58398438 31.88476562 C-129.25362112 32.7187171 -130.96864879 33.46037385 -132.6875 34.1875 C-133.3475 33.8575 -134.0075 33.5275 -134.6875 33.1875 C-95.37662343 7.41815932 -46.07530441 -0.05264104 0 0 Z " fill="#ADADAE" transform="translate(530.6875,194.8125)"/>
<path d="M0 0 C0.33 0 0.66 0 1 0 C0.98889694 0.57897537 0.97779388 1.15795074 0.96635437 1.75447083 C-0.2230082 40.22975854 -0.2230082 40.22975854 6 78 C6.25652344 78.94794434 6.51304687 79.89588867 6.77734375 80.87255859 C8.36094446 86.636747 10.10531039 92.33114957 12 98 C12.2794043 98.84143555 12.55880859 99.68287109 12.84667969 100.54980469 C13.56197121 102.70071062 14.27977953 104.85074049 15 107 C10.77355233 103.32866115 9.76092176 98.30064491 8.0625 93.125 C7.53245361 91.52035889 7.53245361 91.52035889 6.99169922 89.88330078 C2.58258044 76.11065426 0.25092298 62.02814451 -1.60546875 47.71484375 C-1.93596929 45.07172118 -1.93596929 45.07172118 -2.578125 42.83203125 C-3.20807931 40.09639632 -2.55533983 37.71499473 -2 35 C-2.66 34.67 -3.32 34.34 -4 34 C-3.34 34 -2.68 34 -2 34 C-2 29.05 -2 24.1 -2 19 C-2.66 18.67 -3.32 18.34 -4 18 C-3.34 18 -2.68 18 -2 18 C-1.34 12.06 -0.68 6.12 0 0 Z " fill="#A2A3A4" transform="translate(244,341)"/>
<path d="M0 0 C35.33673049 -0.44141203 69.44672454 2.05955413 103.75 11.1875 C104.40809662 11.36162415 105.06619324 11.53574829 105.74423218 11.71514893 C116.62073244 14.62073244 116.62073244 14.62073244 119 17 C112.86798276 15.85160101 106.83729349 14.47969395 100.80444336 12.89306641 C91.24362584 10.38632985 81.68806123 8.25336334 71.9375 6.625 C70.94540527 6.45758301 69.95331055 6.29016602 68.93115234 6.11767578 C63.87347474 5.31022046 59.11376268 4.9306138 54 5 C53.505 4.505 53.505 4.505 53 4 C51.11182292 3.783478 49.21651208 3.62853645 47.3203125 3.5 C46.16402344 3.4175 45.00773438 3.335 43.81640625 3.25 C42.59824219 3.1675 41.38007812 3.085 40.125 3 C37.73152739 2.83686662 35.33828188 2.670356 32.9453125 2.5 C31.87812988 2.4278125 30.81094727 2.355625 29.71142578 2.28125 C27 2 27 2 24 1 C23.67 1.66 23.34 2.32 23 3 C23 2.34 23 1.68 23 1 C22.42894531 1.08378906 21.85789062 1.16757813 21.26953125 1.25390625 C14.06065968 2.15931301 7.21238721 1.73480434 0 1 C0 0.67 0 0.34 0 0 Z " fill="#9E9F9F" transform="translate(523,195)"/>
<path d="M0 0 C0.7031987 0.09019913 1.4063974 0.18039825 2.13090515 0.27333069 C4.36306721 0.56140215 6.59357148 0.86060325 8.82421875 1.16015625 C10.34300291 1.35815998 11.86188246 1.55543354 13.38085938 1.75195312 C17.09230341 2.23374091 20.80230187 2.72551137 24.51171875 3.22265625 C24.84171875 2.56265625 25.17171875 1.90265625 25.51171875 1.22265625 C25.51171875 2.21265625 25.51171875 3.20265625 25.51171875 4.22265625 C26.07189697 4.26003906 26.6320752 4.29742187 27.20922852 4.3359375 C34.7867062 4.95680524 42.04861677 6.52376332 49.44921875 8.22265625 C51.27549805 8.63257813 51.27549805 8.63257813 53.13867188 9.05078125 C62.01586032 11.05737011 62.01586032 11.05737011 65.51171875 12.22265625 C65.51171875 11.56265625 65.51171875 10.90265625 65.51171875 10.22265625 C67.51171875 11.22265625 67.51171875 11.22265625 69.51171875 13.22265625 C71.43338995 14.04698795 71.43338995 14.04698795 73.64453125 14.73046875 C74.85302734 15.12685547 74.85302734 15.12685547 76.0859375 15.53125 C76.92769531 15.80066406 77.76945313 16.07007813 78.63671875 16.34765625 C79.48621094 16.62480469 80.33570313 16.90195313 81.2109375 17.1875 C83.30950548 17.87130305 85.40973571 18.54943902 87.51171875 19.22265625 C84.04672193 20.37765519 83.14011649 20.03122708 79.7421875 18.96484375 C78.7823999 18.67134033 77.8226123 18.37783691 76.83374023 18.07543945 C75.79934814 17.752771 74.76495605 17.43010254 73.69921875 17.09765625 C45.42801125 8.58468591 16.86363966 4.04314417 -12.48828125 1.22265625 C-12.48828125 0.89265625 -12.48828125 0.56265625 -12.48828125 0.22265625 C-8.1742058 -0.94203527 -4.36080139 -0.59935247 0 0 Z " fill="#A9ABAC" transform="translate(581.48828125,134.77734375)"/>
<path d="M0 0 C6.92593104 2.08512354 13.32020384 4.89253957 19.8125 8.0625 C20.81514893 8.54855713 21.81779785 9.03461426 22.85083008 9.53540039 C24.91139792 10.53666566 26.97056868 11.54081125 29.02832031 12.54785156 C31.76141818 13.88341401 34.50092782 15.20473738 37.2421875 16.5234375 C46.11036857 20.82922981 54.71918692 25.44903142 63.1875 30.5 C64.05592529 31.0168335 64.92435059 31.53366699 65.8190918 32.06616211 C71.87181802 35.74363605 71.87181802 35.74363605 73 38 C69.48176305 36.67070516 66.28244106 35.11469691 63.02734375 33.234375 C62.05845215 32.68048096 61.08956055 32.12658691 60.09130859 31.5559082 C59.05055176 30.9599585 58.00979492 30.36400879 56.9375 29.75 C47.3774072 24.33223533 37.71128034 19.20901103 27.875 14.3125 C26.10757446 13.43126465 26.10757446 13.43126465 24.30444336 12.53222656 C18.92239755 9.87059992 13.53927302 7.31470278 8 5 C5.3097242 3.70884035 2.66005083 2.35335919 0 1 C0 0.67 0 0.34 0 0 Z " fill="#A2A3A4" transform="translate(540,407)"/>
<path d="M0 0 C0.92445923 0.01686859 1.84891846 0.03373718 2.8013916 0.05111694 C3.78796753 0.07501495 4.77454346 0.09891296 5.79101562 0.12353516 C6.81529663 0.14477448 7.83957764 0.16601379 8.89489746 0.18789673 C11.05678096 0.2340734 13.21860734 0.28299443 15.38037109 0.33447266 C18.68510421 0.41231121 21.98993175 0.47949727 25.29492188 0.54541016 C27.39780056 0.59164818 29.5006658 0.6385025 31.60351562 0.68603516 C33.08337952 0.71580948 33.08337952 0.71580948 34.59313965 0.7461853 C35.51759888 0.76935822 36.44205811 0.79253113 37.39453125 0.81640625 C38.20329712 0.83496674 39.01206299 0.85352722 39.84533691 0.87265015 C42.36212722 1.04915987 44.73589489 1.49361984 47.19726562 2.03759766 C47.19726562 2.36759766 47.19726562 2.69759766 47.19726562 3.03759766 C46.59608414 3.03537704 45.99490265 3.03315643 45.37550354 3.03086853 C39.03085941 3.00847941 32.68622678 2.9935533 26.34155273 2.98266602 C23.98412621 2.97768474 21.6267027 2.97089731 19.26928711 2.9621582 C7.04065695 2.91801152 -5.12735387 2.92601914 -17.328125 3.81494141 C-22.48772597 4.14557351 -27.63533009 4.12720582 -32.80273438 4.03759766 C-32.80273438 3.70759766 -32.80273438 3.37759766 -32.80273438 3.03759766 C-32.13218018 2.98224854 -31.46162598 2.92689941 -30.77075195 2.86987305 C-27.718657 2.61625755 -24.66695123 2.35822128 -21.61523438 2.10009766 C-20.56013672 2.01308594 -19.50503906 1.92607422 -18.41796875 1.83642578 C-17.39638672 1.74941406 -16.37480469 1.66240234 -15.32226562 1.57275391 C-14.38487549 1.49420166 -13.44748535 1.41564941 -12.48168945 1.3347168 C-9.84029501 1.08879657 -9.84029501 1.08879657 -7.43547058 0.52137756 C-4.8667639 0.04936344 -2.60589215 -0.0546761 0 0 Z " fill="#A4A5A5" transform="translate(520.802734375,131.96240234375)"/>
<path d="M0 0 C0.33 0 0.66 0 1 0 C0.93113718 5.76621515 0.84317701 11.53170419 0.73754883 17.29736328 C0.70430572 19.25854436 0.67627185 21.21982098 0.65356445 23.18115234 C0.62000719 26.00139047 0.56769101 28.82075365 0.51171875 31.640625 C0.50532883 32.51680481 0.4989389 33.39298462 0.49235535 34.29571533 C0.47256119 35.11626404 0.45276703 35.93681274 0.43237305 36.78222656 C0.42126999 37.50170471 0.41016693 38.22118286 0.39872742 38.96246338 C0 41 0 41 -3 45 C-2.67 41.7 -2.34 38.4 -2 35 C-2.66 34.67 -3.32 34.34 -4 34 C-3.34 34 -2.68 34 -2 34 C-2 29.05 -2 24.1 -2 19 C-2.66 18.67 -3.32 18.34 -4 18 C-3.34 18 -2.68 18 -2 18 C-1.34 12.06 -0.68 6.12 0 0 Z " fill="#BDBDBE" transform="translate(244,341)"/>
<path d="M0 0 C6.00923442 5.00899774 11.4765562 10.40941859 16.95117188 15.99023438 C20.89829795 19.98330178 24.93070557 23.76052483 29.24047852 27.36157227 C31.10088298 29.09394002 32.53560533 30.92743527 34 33 C30.43082939 31.4585799 27.91782231 29.30524541 25.0625 26.6875 C24.22847656 25.92824219 23.39445312 25.16898438 22.53515625 24.38671875 C19.97057016 21.97229333 17.48334932 19.49787183 15 17 C13.74446548 15.76593343 12.48787081 14.53294491 11.23046875 13.30078125 C9.88272358 11.97144431 8.53506904 10.64201548 7.1875 9.3125 C6.49462891 8.63638672 5.80175781 7.96027344 5.08789062 7.26367188 C4.43369141 6.61591797 3.77949219 5.96816406 3.10546875 5.30078125 C2.50887451 4.71466064 1.91228027 4.12854004 1.29760742 3.5246582 C0 2 0 2 0 0 Z " fill="#9F9FA1" transform="translate(298,508)"/>
<path d="M0 0 C6.93 1.65 13.86 3.3 21 5 C21 4.34 21 3.68 21 3 C23 4 23 4 25 6 C26.9216712 6.8243317 26.9216712 6.8243317 29.1328125 7.5078125 C30.34130859 7.90419922 30.34130859 7.90419922 31.57421875 8.30859375 C32.41597656 8.57800781 33.25773438 8.84742188 34.125 9.125 C35.39923828 9.54072266 35.39923828 9.54072266 36.69921875 9.96484375 C38.79778673 10.6486468 40.89801696 11.32678277 43 12 C39.49839046 13.16720318 38.50504585 12.77569004 35.0546875 11.70703125 C34.06726563 11.40804932 33.07984375 11.10906738 32.0625 10.80102539 C31.010625 10.47481201 29.95875 10.14859863 28.875 9.8125 C18.98403763 6.82659125 9.09119062 4.20744795 -1 2 C-0.67 1.34 -0.34 0.68 0 0 Z " fill="#B0B1B1" transform="translate(626,142)"/>
<path d="M0 0 C7.44007456 1.36749034 13.91559314 3.86777845 20.8125 6.9375 C21.83537109 7.38029297 22.85824219 7.82308594 23.91210938 8.27929688 C28.301539 10.20811631 32.24213393 11.98333685 36 15 C32.12311214 14.38082372 28.97285438 13.19146301 25.4375 11.5 C22.27968053 9.99335659 19.38865481 8.82445622 16 8 C14.73343464 7.40929095 13.48326676 6.78240253 12.25 6.125 C8.26237832 4.07122493 4.22250884 2.50803887 0 1 C0 0.67 0 0.34 0 0 Z " fill="#A3A4A5" transform="translate(651,215)"/>
<path d="M0 0 C4.02128551 6.03192827 4.37062552 11.83730594 4.625 18.875 C4.66367187 19.75414062 4.70234375 20.63328125 4.7421875 21.5390625 C4.83581034 23.69238793 4.91896459 25.84616414 5 28 C4.67 28 4.34 28 4 28 C3.32634616 24.27206058 2.66231022 20.54247005 2 16.8125 C1.80921875 15.75740234 1.6184375 14.70230469 1.421875 13.61523438 C1.24140625 12.59365234 1.0609375 11.57207031 0.875 10.51953125 C0.70742188 9.58214111 0.53984375 8.64475098 0.3671875 7.67895508 C0.01100934 5.08032281 -0.06645996 2.61893788 0 0 Z " fill="#9D9EA0" transform="translate(775,568)"/>
<path d="M0 0 C5.91712679 4.15457839 11.01139933 8.77258334 16 14 C11.87286433 14 10.2510474 11.7725266 7.4375 9.0625 C4.00518676 5.64502345 4.00518676 5.64502345 0 3 C0 2.01 0 1.02 0 0 Z " fill="#A8AAAB" transform="translate(316,526)"/>
<path d="M0 0 C5.46737191 1.74807129 10.75824848 3.65794081 16 6 C15.67 6.66 15.34 7.32 15 8 C9.8817659 5.86740246 4.9422919 3.51449939 0 1 C0 0.67 0 0.34 0 0 Z " fill="#ABACAD" transform="translate(540,407)"/>
<path d="M0 0 C0.33 0 0.66 0 1 0 C0.45136137 6.7857936 -0.54267938 13.35009036 -2 20 C-2.33 20 -2.66 20 -3 20 C-4.13820027 15.21955886 -3.73015528 12.55304022 -2 8 C-1.28308577 5.3440493 -0.64558846 2.67458078 0 0 Z " fill="#A0A2A3" transform="translate(248,320)"/>
<path d="M0 0 C4.95 0 9.9 0 15 0 C11.33169091 2.44553939 8.36622085 2.95607424 4 3 C1.5 2.0625 1.5 2.0625 0 1 C0 0.67 0 0.34 0 0 Z " fill="#B8B8B8" transform="translate(508,195)"/>
<path d="M0 0 C0.66 0.33 1.32 0.66 2 1 C0.5023304 3.49824035 -1.01558218 5.86004673 -3 8 C-5.8125 8.4375 -5.8125 8.4375 -8 8 C-5.33333333 5.33333333 -2.66666667 2.66666667 0 0 Z " fill="#BEC0C2" transform="translate(648,767)"/>
<path d="M0 0 C2.84423926 0.89818082 4.59666789 1.47391464 6.4375 3.875 C7 6 7 6 6.125 8.25 C5.75375 8.8275 5.3825 9.405 5 10 C4.34 10 3.68 10 3 10 C3.2475 9.0925 3.495 8.185 3.75 7.25 C4.38259327 3.91162152 4.38259327 3.91162152 2.0625 1.625 C1.381875 1.08875 0.70125 0.5525 0 0 Z " fill="#A8A8AA" transform="translate(732,184)"/>
<path d="M0 0 C7.625 1.875 7.625 1.875 11 3 C9.4375 4.25 9.4375 4.25 7 5 C4.42998985 3.93237266 2.3469597 2.53455057 0 1 C0 0.67 0 0.34 0 0 Z " fill="#9C9C9F" transform="translate(687,230)"/>
<path d="M0 0 C0.66 0.66 1.32 1.32 2 2 C1.01 2 0.02 2 -1 2 C-0.67 1.34 -0.34 0.68 0 0 Z " fill="#EEF0EE" transform="translate(596,867)"/>
<path d="M0 0 C0.66 0.66 1.32 1.32 2 2 C0.68 1.67 -0.64 1.34 -2 1 C-1.34 0.67 -0.68 0.34 0 0 Z " fill="#EDEEF1" transform="translate(514,397)"/>
<path d="M0 0 C0.33 0 0.66 0 1 0 C1 1.65 1 3.3 1 5 C0.67 5 0.34 5 0 5 C0 3.35 0 1.7 0 0 Z " fill="#EEEFF0" transform="translate(240,363)"/>
<path d="M0 0 C1.65 0 3.3 0 5 0 C5 0.33 5 0.66 5 1 C3.35 1 1.7 1 0 1 C0 0.67 0 0.34 0 0 Z " fill="#F5F5F5" transform="translate(488,133)"/>
<path d="M0 0 C0.66 0 1.32 0 2 0 C1.67 0.99 1.34 1.98 1 3 C0.67 2.01 0.34 1.02 0 0 Z " fill="#EFF0F0" transform="translate(455,875)"/>
<path d="M0 0 C0 3 0 3 0 3 Z " fill="#EBEDEC" transform="translate(772,699)"/>
<path d="M0 0 C0.99 0 1.98 0 3 0 C2.67 0.66 2.34 1.32 2 2 C1.34 1.34 0.68 0.68 0 0 Z " fill="#EFF1F0" transform="translate(288,501)"/>
<path d="M0 0 C0.99 0.495 0.99 0.495 2 1 C1.67 1.66 1.34 2.32 1 3 C0.67 2.01 0.34 1.02 0 0 Z " fill="#EEEFEE" transform="translate(280,242)"/>
<path d="M0 0 C0.99 1.485 0.99 1.485 2 3 C1.34 3 0.68 3 0 3 C0 2.01 0 1.02 0 0 Z " fill="#F1F1F3" transform="translate(672,225)"/>
<path d="M0 0 C0.99 0.495 0.99 0.495 2 1 C1.01 1.495 1.01 1.495 0 2 C0 1.34 0 0.68 0 0 Z " fill="#EBECED" transform="translate(586,870)"/>
<path d="M0 0 C0.33 0.66 0.66 1.32 1 2 C0.34 1.67 -0.32 1.34 -1 1 C-0.67 0.67 -0.34 0.34 0 0 Z " fill="#F0F1F1" transform="translate(749,750)"/>
<path d="M0 0 C0.66 0.66 1.32 1.32 2 2 C1.34 2 0.68 2 0 2 C0 1.34 0 0.68 0 0 Z " fill="#F3F2F2" transform="translate(493,642)"/>
<path d="M0 0 C0.99 0.495 0.99 0.495 2 1 C1.01 1.495 1.01 1.495 0 2 C0 1.34 0 0.68 0 0 Z " fill="#F1F2F1" transform="translate(436,614)"/>
<path d="M0 0 C3 1 3 1 3 1 Z " fill="#F0F0F1" transform="translate(369,572)"/>
<path d="M0 0 C3 1 3 1 3 1 Z " fill="#F8F8F9" transform="translate(428,529)"/>
<path d="M0 0 C0.66 0 1.32 0 2 0 C1.67 0.66 1.34 1.32 1 2 C0.67 1.34 0.34 0.68 0 0 Z " fill="#EDEFEE" transform="translate(280,492)"/>
<path d="M0 0 C0.66 0.66 1.32 1.32 2 2 C1.34 2 0.68 2 0 2 C0 1.34 0 0.68 0 0 Z " fill="#F2F1F1" transform="translate(726,461)"/>
<path d="" fill="#EDEDED" transform="translate(0,0)"/>
<path d="M0 0 C0.66 0 1.32 0 2 0 C1.67 0.66 1.34 1.32 1 2 C0.67 1.34 0.34 0.68 0 0 Z " fill="#F5F6F5" transform="translate(621,376)"/>
<path d="M0 0 C0.33 0.66 0.66 1.32 1 2 C0.34 1.67 -0.32 1.34 -1 1 C-0.67 0.67 -0.34 0.34 0 0 Z " fill="#F7F6F6" transform="translate(324,323)"/>
<path d="M0 0 C0.66 0 1.32 0 2 0 C1.67 0.66 1.34 1.32 1 2 C0.67 1.34 0.34 0.68 0 0 Z " fill="#ECECEE" transform="translate(264,267)"/>
<path d="M0 0 C0.66 0 1.32 0 2 0 C1.67 0.66 1.34 1.32 1 2 C0.67 1.34 0.34 0.68 0 0 Z " fill="#EEEDEE" transform="translate(289,232)"/>
<path d="M0 0 C0.33 0.66 0.66 1.32 1 2 C0.34 1.67 -0.32 1.34 -1 1 C-0.67 0.67 -0.34 0.34 0 0 Z " fill="#F3F4F4" transform="translate(439,214)"/>
<path d="M0 0 C3 1 3 1 3 1 Z " fill="#F8F9F7" transform="translate(563,198)"/>
<path d="M0 0 C0.66 0.66 1.32 1.32 2 2 C1.34 2 0.68 2 0 2 C0 1.34 0 0.68 0 0 Z " fill="#EFEFEF" transform="translate(336,186)"/>
<path d="M0 0 C0.66 0.66 1.32 1.32 2 2 C1.34 2 0.68 2 0 2 C0 1.34 0 0.68 0 0 Z " fill="#E5E5E5" transform="translate(716,172)"/>
<path d="" fill="#E8E9EA" transform="translate(0,0)"/>
<path d="M0 0 C0.33 0.66 0.66 1.32 1 2 C0.34 1.67 -0.32 1.34 -1 1 C-0.67 0.67 -0.34 0.34 0 0 Z " fill="#EFF0F0" transform="translate(442,140)"/>
<path d="M0 0 C3 1 3 1 3 1 Z " fill="#F1F3F3" transform="translate(467,136)"/>
<path d="M0 0 C3 1 3 1 3 1 Z " fill="#F1F2F2" transform="translate(563,132)"/>
<path d="M0 0 C0.33 0.66 0.66 1.32 1 2 C0.34 1.67 -0.32 1.34 -1 1 C-0.67 0.67 -0.34 0.34 0 0 Z " fill="#F2F3F3" transform="translate(506,131)"/>
<path d="M0 0 C2 1 2 1 2 1 Z " fill="#F1F1F1" transform="translate(474,877)"/>
<path d="M0 0 C2 1 2 1 2 1 Z " fill="#F2F2F2" transform="translate(451,874)"/>
<path d="M0 0 C2 1 2 1 2 1 Z " fill="#F1F1F1" transform="translate(436,871)"/>
<path d="M0 0 C2 1 2 1 2 1 Z " fill="#F1F3F4" transform="translate(431,870)"/>
<path d="M0 0 C2 1 2 1 2 1 Z " fill="#EFEFF0" transform="translate(417,867)"/>
<path d="" fill="#EAEAEA" transform="translate(0,0)"/>
<path d="" fill="#EEF1EF" transform="translate(0,0)"/>
<path d="M0 0 C2 1 2 1 2 1 Z " fill="#EFEFEE" transform="translate(369,851)"/>
<path d="M0 0 C2 1 2 1 2 1 Z " fill="#E8EAE9" transform="translate(653,847)"/>
<path d="" fill="#EAEBED" transform="translate(0,0)"/>
<path d="" fill="#E8E8E9" transform="translate(0,0)"/>
<path d="M0 0 C2 1 2 1 2 1 Z " fill="#F8F9F8" transform="translate(563,805)"/>
<path d="M0 0 C2 1 2 1 2 1 Z " fill="#F5F6F6" transform="translate(452,804)"/>
<path d="M0 0 C2 1 2 1 2 1 Z " fill="#F6F6F4" transform="translate(417,795)"/>
<path d="M0 0 C2 1 2 1 2 1 Z " fill="#F7F7F6" transform="translate(611,786)"/>
<path d="" fill="#DEDDDD" transform="translate(0,0)"/>
<path d="M0 0 C2 1 2 1 2 1 Z " fill="#E3E3E3" transform="translate(282,779)"/>
<path d="M0 0 C2 1 2 1 2 1 Z " fill="#F5F5F5" transform="translate(676,733)"/>
<path d="" fill="#F7F8F8" transform="translate(0,0)"/>
<path d="" fill="#EDEFEF" transform="translate(0,0)"/>
<path d="M0 0 C2 1 2 1 2 1 Z " fill="#EEEEEF" transform="translate(524,660)"/>
<path d="" fill="#F1F1F2" transform="translate(0,0)"/>
<path d="M0 0 C2 1 2 1 2 1 Z " fill="#F2F3F7" transform="translate(496,644)"/>
<path d="M0 0 C2 1 2 1 2 1 Z " fill="#F3F5F3" transform="translate(477,634)"/>
<path d="" fill="#F1F5F5" transform="translate(0,0)"/>
<path d="M0 0 C2 1 2 1 2 1 Z " fill="#F4F2F4" transform="translate(565,615)"/>
<path d="M0 0 C2 1 2 1 2 1 Z " fill="#F0F3F1" transform="translate(442,615)"/>
<path d="M0 0 C2 1 2 1 2 1 Z " fill="#F1F1F1" transform="translate(432,611)"/>
<path d="" fill="#F7F6F9" transform="translate(0,0)"/>
<path d="M0 0 C2 1 2 1 2 1 Z " fill="#F7F6F7" transform="translate(553,600)"/>
<path d="" fill="#F9FAF7" transform="translate(0,0)"/>
<path d="" fill="#F2F1F2" transform="translate(0,0)"/>
<path d="M0 0 C2 1 2 1 2 1 Z " fill="#F0EFF0" transform="translate(779,577)"/>
<path d="" fill="#F8F8F9" transform="translate(0,0)"/>
<path d="" fill="#F1F2F5" transform="translate(0,0)"/>
<path d="M0 0 C2 1 2 1 2 1 Z " fill="#F8F7F9" transform="translate(501,569)"/>
<path d="" fill="#F6F6F7" transform="translate(0,0)"/>
<path d="M0 0 C2 1 2 1 2 1 Z " fill="#F7F7F7" transform="translate(493,565)"/>
<path d="" fill="#F4F6F7" transform="translate(0,0)"/>
<path d="M0 0 C2 1 2 1 2 1 Z " fill="#F7F8F7" transform="translate(683,521)"/>
<path d="M0 0 C2 1 2 1 2 1 Z " fill="#F7F8F9" transform="translate(397,508)"/>
<path d="" fill="#EFEFF0" transform="translate(0,0)"/>
<path d="M0 0 C2 1 2 1 2 1 Z " fill="#F4F4F4" transform="translate(739,480)"/>
<path d="" fill="#F2F3F6" transform="translate(0,0)"/>
<path d="M0 0 C2 1 2 1 2 1 Z " fill="#F5F4F5" transform="translate(642,470)"/>
<path d="" fill="#F5F7F5" transform="translate(0,0)"/>
<path d="" fill="#F1EFF1" transform="translate(0,0)"/>
<path d="" fill="#F5F5F5" transform="translate(0,0)"/>
<path d="M0 0 C2 1 2 1 2 1 Z " fill="#F1F2F4" transform="translate(701,433)"/>
<path d="M0 0 C2 1 2 1 2 1 Z " fill="#F4F3F4" transform="translate(681,417)"/>
<path d="" fill="#EFEEEE" transform="translate(0,0)"/>
<path d="M0 0 C2 1 2 1 2 1 Z " fill="#F2F2F3" transform="translate(530,405)"/>
<path d="" fill="#EFF1F1" transform="translate(0,0)"/>
<path d="" fill="#F3F5F2" transform="translate(0,0)"/>
<path d="" fill="#F8F9F8" transform="translate(0,0)"/>
<path d="M0 0 C2 1 2 1 2 1 Z " fill="#F4F5F5" transform="translate(575,352)"/>
<path d="M0 0 C2 1 2 1 2 1 Z " fill="#F6F5F6" transform="translate(563,346)"/>
<path d="M0 0 C2 1 2 1 2 1 Z " fill="#F4F7F6" transform="translate(565,345)"/>
<path d="" fill="#F4F5F5" transform="translate(0,0)"/>
<path d="" fill="#F0F2F1" transform="translate(0,0)"/>
<path d="M0 0 C2 1 2 1 2 1 Z " fill="#E2E2E3" transform="translate(704,229)"/>
<path d="M0 0 C2 1 2 1 2 1 Z " fill="#F1F1F2" transform="translate(632,212)"/>
<path d="M0 0 C2 1 2 1 2 1 Z " fill="#F4F3F3" transform="translate(438,211)"/>
<path d="M0 0 C2 1 2 1 2 1 Z " fill="#F7F7F5" transform="translate(452,207)"/>
<path d="M0 0 C2 1 2 1 2 1 Z " fill="#F6F5F6" transform="translate(610,205)"/>
<path d="" fill="#F7F9F7" transform="translate(0,0)"/>
<path d="" fill="#F7F8F7" transform="translate(0,0)"/>
<path d="" fill="#DFE0E0" transform="translate(0,0)"/>
<path d="M0 0 C2 1 2 1 2 1 Z " fill="#F5F7F5" transform="translate(571,199)"/>
<path d="M0 0 C2 1 2 1 2 1 Z " fill="#F5F5F7" transform="translate(529,197)"/>
<path d="M0 0 C2 1 2 1 2 1 Z " fill="#F4F5F5" transform="translate(524,197)"/>
<path d="M0 0 C2 1 2 1 2 1 Z " fill="#DDE1E1" transform="translate(734,196)"/>
<path d="M0 0 C2 1 2 1 2 1 Z " fill="#C1C2C2" transform="translate(740,190)"/>
<path d="M0 0 C2 1 2 1 2 1 Z " fill="#C6C6C7" transform="translate(737,185)"/>
<path d="M0 0 C2 1 2 1 2 1 Z " fill="#DBDBDC" transform="translate(726,177)"/>
<path d="M0 0 C2 1 2 1 2 1 Z " fill="#E4E4E3" transform="translate(713,171)"/>
<path d="M0 0 C2 1 2 1 2 1 Z " fill="#EDEFEF" transform="translate(361,171)"/>
<path d="M0 0 C2 1 2 1 2 1 Z " fill="#EDEDEE" transform="translate(367,168)"/>
<path d="M0 0 C2 1 2 1 2 1 Z " fill="#EDEDEC" transform="translate(700,165)"/>
<path d="" fill="#EFF0F0" transform="translate(0,0)"/>
<path d="M0 0 C2 1 2 1 2 1 Z " fill="#F2F2F4" transform="translate(381,161)"/>
<path d="M0 0 C2 1 2 1 2 1 Z " fill="#ECEBEB" transform="translate(676,155)"/>
<path d="M0 0 C2 1 2 1 2 1 Z " fill="#EFF0F0" transform="translate(415,148)"/>
<path d="M0 0 C2 1 2 1 2 1 Z " fill="#EEEEF0" transform="translate(415,146)"/>
<path d="M0 0 C2 1 2 1 2 1 Z " fill="#F1F4F2" transform="translate(641,144)"/>
<path d="M0 0 C2 1 2 1 2 1 Z " fill="#EEEFEE" transform="translate(444,140)"/>
<path d="" fill="#EFEFF0" transform="translate(0,0)"/>
<path d="M0 0 C2 1 2 1 2 1 Z " fill="#EEEFF0" transform="translate(603,136)"/>
<path d="M0 0 C2 1 2 1 2 1 Z " fill="#F2F2F2" transform="translate(567,132)"/>
<path d="M0 0 C2 1 2 1 2 1 Z " fill="#F2F4F2" transform="translate(545,131)"/>
<path d="M0 0 C2 1 2 1 2 1 Z " fill="#EEEFF0" transform="translate(542,131)"/>
<path d="" fill="#000000" transform="translate(0,0)"/>
<path d="" fill="#111011" transform="translate(0,0)"/>
<path d="" fill="#000000" transform="translate(0,0)"/>
<path d="" fill="#000000" transform="translate(0,0)"/>
<path d="" fill="#000000" transform="translate(0,0)"/>
<path d="" fill="#434442" transform="translate(0,0)"/>
<path d="" fill="#000000" transform="translate(0,0)"/>
<path d="" fill="#000000" transform="translate(0,0)"/>
<path d="" fill="#000000" transform="translate(0,0)"/>
<path d="" fill="#282828" transform="translate(0,0)"/>
<path d="" fill="#000000" transform="translate(0,0)"/>
<path d="" fill="#000000" transform="translate(0,0)"/>
<path d="" fill="#000000" transform="translate(0,0)"/>
<path d="" fill="#2F2D2E" transform="translate(0,0)"/>
<path d="" fill="#000000" transform="translate(0,0)"/>
<path d="" fill="#000402" transform="translate(0,0)"/>
<path d="" fill="#333330" transform="translate(0,0)"/>
<path d="" fill="#000000" transform="translate(0,0)"/>
<path d="" fill="#020102" transform="translate(0,0)"/>
<path d="" fill="#000000" transform="translate(0,0)"/>
<path d="" fill="#313333" transform="translate(0,0)"/>
<path d="" fill="#000000" transform="translate(0,0)"/>
<path d="" fill="#000000" transform="translate(0,0)"/>
<path d="" fill="#000000" transform="translate(0,0)"/>
<path d="" fill="#000000" transform="translate(0,0)"/>
<path d="" fill="#000000" transform="translate(0,0)"/>
<path d="" fill="#000000" transform="translate(0,0)"/>
<path d="" fill="#000000" transform="translate(0,0)"/>
<path d="" fill="#111113" transform="translate(0,0)"/>
<path d="" fill="#000000" transform="translate(0,0)"/>
<path d="" fill="#000000" transform="translate(0,0)"/>
<path d="" fill="#040404" transform="translate(0,0)"/>
<path d="" fill="#030404" transform="translate(0,0)"/>
<path d="" fill="#000000" transform="translate(0,0)"/>
<path d="" fill="#000000" transform="translate(0,0)"/>
<path d="" fill="#000000" transform="translate(0,0)"/>
<path d="" fill="#000000" transform="translate(0,0)"/>
<path d="" fill="#050608" transform="translate(0,0)"/>
<path d="" fill="#000000" transform="translate(0,0)"/>
<path d="" fill="#F1F4F4" transform="translate(0,0)"/>
<path d="" fill="#EDEFED" transform="translate(0,0)"/>
<path d="" fill="#F2F1F1" transform="translate(0,0)"/>
<path d="" fill="#F0F3F2" transform="translate(0,0)"/>
<path d="" fill="#EAE9EC" transform="translate(0,0)"/>
<path d="" fill="#F0F0EE" transform="translate(0,0)"/>
<path d="" fill="#F1F2F0" transform="translate(0,0)"/>
<path d="" fill="#F2F2F2" transform="translate(0,0)"/>
<path d="" fill="#EEF1F1" transform="translate(0,0)"/>
<path d="" fill="#F1F1F3" transform="translate(0,0)"/>
<path d="" fill="#F2F1F2" transform="translate(0,0)"/>
<path d="" fill="#F0F0EE" transform="translate(0,0)"/>
<path d="" fill="#F2F2F2" transform="translate(0,0)"/>
<path d="" fill="#EFF0F0" transform="translate(0,0)"/>
<path d="" fill="#000000" transform="translate(0,0)"/>
<path d="" fill="#EEF2EF" transform="translate(0,0)"/>
<path d="" fill="#F3F1F1" transform="translate(0,0)"/>
<path d="" fill="#EAEAED" transform="translate(0,0)"/>
<path d="" fill="#EEEDEC" transform="translate(0,0)"/>
<path d="" fill="#F1F0F3" transform="translate(0,0)"/>
<path d="" fill="#EDEEF3" transform="translate(0,0)"/>
<path d="" fill="#ECEDF0" transform="translate(0,0)"/>
<path d="" fill="#F0F0F0" transform="translate(0,0)"/>
<path d="" fill="#F2F3F4" transform="translate(0,0)"/>
<path d="" fill="#EBECEA" transform="translate(0,0)"/>
<path d="" fill="#E8E9E8" transform="translate(0,0)"/>
<path d="" fill="#E9E8E9" transform="translate(0,0)"/>
<path d="" fill="#F0F2F2" transform="translate(0,0)"/>
<path d="" fill="#F0EFEF" transform="translate(0,0)"/>
<path d="" fill="#F2F3F0" transform="translate(0,0)"/>
<path d="" fill="#EDEEED" transform="translate(0,0)"/>
<path d="" fill="#EEEDEC" transform="translate(0,0)"/>
<path d="" fill="#ECEDEB" transform="translate(0,0)"/>
<path d="" fill="#F2F4F5" transform="translate(0,0)"/>
<path d="" fill="#080807" transform="translate(0,0)"/>
<path d="" fill="#EAEBEA" transform="translate(0,0)"/>
<path d="" fill="#F3F2EF" transform="translate(0,0)"/>
<path d="" fill="#ECEBEE" transform="translate(0,0)"/>
<path d="" fill="#EFF2F2" transform="translate(0,0)"/>
<path d="" fill="#EDECED" transform="translate(0,0)"/>
<path d="" fill="#EDEBED" transform="translate(0,0)"/>
<path d="" fill="#EBECEE" transform="translate(0,0)"/>
<path d="" fill="#EBECEB" transform="translate(0,0)"/>
<path d="" fill="#000000" transform="translate(0,0)"/>
<path d="" fill="#F1F2F3" transform="translate(0,0)"/>
<path d="" fill="#E3E4E4" transform="translate(0,0)"/>
<path d="" fill="#EFEDEF" transform="translate(0,0)"/>
<path d="" fill="#F4F4F2" transform="translate(0,0)"/>
<path d="" fill="#000000" transform="translate(0,0)"/>
<path d="" fill="#000000" transform="translate(0,0)"/>
<path d="" fill="#F0F3F0" transform="translate(0,0)"/>
<path d="" fill="#ECEDEF" transform="translate(0,0)"/>
<path d="" fill="#E9E8E9" transform="translate(0,0)"/>
<path d="" fill="#EEECED" transform="translate(0,0)"/>
<path d="" fill="#E7E6E7" transform="translate(0,0)"/>
<path d="" fill="#585958" transform="translate(0,0)"/>
<path d="" fill="#E7E9EB" transform="translate(0,0)"/>
<path d="" fill="#F8F9F7" transform="translate(0,0)"/>
<path d="" fill="#F5F6F8" transform="translate(0,0)"/>
<path d="" fill="#F5F6F4" transform="translate(0,0)"/>
<path d="" fill="#F6F9F7" transform="translate(0,0)"/>
<path d="" fill="#F8F8F8" transform="translate(0,0)"/>
<path d="" fill="#F9F7F7" transform="translate(0,0)"/>
<path d="" fill="#F5F5F5" transform="translate(0,0)"/>
<path d="" fill="#F5F5F6" transform="translate(0,0)"/>
<path d="" fill="#F8F9FA" transform="translate(0,0)"/>
<path d="" fill="#F7FAF9" transform="translate(0,0)"/>
<path d="" fill="#F4F6F5" transform="translate(0,0)"/>
<path d="" fill="#F4F2F4" transform="translate(0,0)"/>
<path d="" fill="#E9ECED" transform="translate(0,0)"/>
<path d="" fill="#E7E8E7" transform="translate(0,0)"/>
<path d="" fill="#F7F5FA" transform="translate(0,0)"/>
<path d="" fill="#000000" transform="translate(0,0)"/>
<path d="" fill="#F8F7F6" transform="translate(0,0)"/>
<path d="" fill="#F9F8F9" transform="translate(0,0)"/>
<path d="" fill="#FAFCF9" transform="translate(0,0)"/>
<path d="" fill="#F9FAFB" transform="translate(0,0)"/>
<path d="" fill="#F6F6F6" transform="translate(0,0)"/>
<path d="" fill="#F7F8F6" transform="translate(0,0)"/>
<path d="" fill="#FAFBFC" transform="translate(0,0)"/>
<path d="" fill="#F4F8F8" transform="translate(0,0)"/>
<path d="" fill="#F2F5F6" transform="translate(0,0)"/>
<path d="" fill="#F9F9F8" transform="translate(0,0)"/>
<path d="" fill="#F9F9F9" transform="translate(0,0)"/>
<path d="" fill="#D0D2D4" transform="translate(0,0)"/>
<path d="" fill="#EBECED" transform="translate(0,0)"/>
<path d="" fill="#EDEEEC" transform="translate(0,0)"/>
<path d="" fill="#F5F2F2" transform="translate(0,0)"/>
<path d="" fill="#F8FAF8" transform="translate(0,0)"/>
<path d="" fill="#F5F3F6" transform="translate(0,0)"/>
<path d="" fill="#D7D7D6" transform="translate(0,0)"/>
<path d="" fill="#F6F4F2" transform="translate(0,0)"/>
<path d="" fill="#F8FAF7" transform="translate(0,0)"/>
<path d="" fill="#D6D5D4" transform="translate(0,0)"/>
<path d="" fill="#F5F7F6" transform="translate(0,0)"/>
<path d="" fill="#000000" transform="translate(0,0)"/>
<path d="" fill="#000000" transform="translate(0,0)"/>
<path d="" fill="#F8F7F8" transform="translate(0,0)"/>
<path d="" fill="#F6F6F8" transform="translate(0,0)"/>
<path d="" fill="#F3F4F6" transform="translate(0,0)"/>
<path d="" fill="#F8F8F8" transform="translate(0,0)"/>
<path d="" fill="#F6F8F8" transform="translate(0,0)"/>
<path d="" fill="#F8F8FA" transform="translate(0,0)"/>
<path d="" fill="#CBCCCF" transform="translate(0,0)"/>
<path d="" fill="#EAEAE8" transform="translate(0,0)"/>
<path d="" fill="#F5F5F7" transform="translate(0,0)"/>
<path d="" fill="#F7F7F8" transform="translate(0,0)"/>
<path d="" fill="#F3F6F6" transform="translate(0,0)"/>
<path d="" fill="#EAEBE9" transform="translate(0,0)"/>
<path d="" fill="#DADBDD" transform="translate(0,0)"/>
<path d="" fill="#F0F0F0" transform="translate(0,0)"/>
<path d="" fill="#F4F5F4" transform="translate(0,0)"/>
<path d="" fill="#F9F7FA" transform="translate(0,0)"/>
<path d="" fill="#F4F5F4" transform="translate(0,0)"/>
<path d="" fill="#F4F7F8" transform="translate(0,0)"/>
<path d="" fill="#F4F9F4" transform="translate(0,0)"/>
<path d="" fill="#F6F7F5" transform="translate(0,0)"/>
<path d="" fill="#D8D8DC" transform="translate(0,0)"/>
<path d="" fill="#000000" transform="translate(0,0)"/>
<path d="" fill="#EEEDEC" transform="translate(0,0)"/>
<path d="" fill="#F5F5F5" transform="translate(0,0)"/>
<path d="" fill="#F4F4F5" transform="translate(0,0)"/>
<path d="" fill="#E0E2E4" transform="translate(0,0)"/>
<path d="" fill="#E6E7E9" transform="translate(0,0)"/>
<path d="" fill="#E7E9EA" transform="translate(0,0)"/>
<path d="" fill="#1C1F1D" transform="translate(0,0)"/>
<path d="" fill="#EBEBEC" transform="translate(0,0)"/>
<path d="" fill="#EDECED" transform="translate(0,0)"/>
<path d="" fill="#EDEEEE" transform="translate(0,0)"/>
<path d="" fill="#EEEEF1" transform="translate(0,0)"/>
<path d="" fill="#E1E6E4" transform="translate(0,0)"/>
<path d="" fill="#F9F8F7" transform="translate(0,0)"/>
<path d="" fill="#E3E4E4" transform="translate(0,0)"/>
<path d="" fill="#F3F3F2" transform="translate(0,0)"/>
<path d="" fill="#E3E0E5" transform="translate(0,0)"/>
<path d="" fill="#EEEDEE" transform="translate(0,0)"/>
<path d="" fill="#DFDEE3" transform="translate(0,0)"/>
<path d="" fill="#DDDDDE" transform="translate(0,0)"/>
<path d="" fill="#E2E3E3" transform="translate(0,0)"/>
<path d="" fill="#FAF9F9" transform="translate(0,0)"/>
<path d="" fill="#D9DCDB" transform="translate(0,0)"/>
<path d="" fill="#FAF9FB" transform="translate(0,0)"/>
<path d="" fill="#D6D8D8" transform="translate(0,0)"/>
<path d="" fill="#EAEAE9" transform="translate(0,0)"/>
<path d="" fill="#EFEEEF" transform="translate(0,0)"/>
<path d="" fill="#EEEFEF" transform="translate(0,0)"/>
<path d="" fill="#F6F8F8" transform="translate(0,0)"/>
<path d="" fill="#F6F4F2" transform="translate(0,0)"/>
<path d="" fill="#EDEBED" transform="translate(0,0)"/>
<path d="" fill="#ECEDEC" transform="translate(0,0)"/>
<path d="" fill="#F8F8F7" transform="translate(0,0)"/>
<path d="" fill="#FCFBFA" transform="translate(0,0)"/>
<path d="" fill="#131012" transform="translate(0,0)"/>
<path d="" fill="#F9F8F9" transform="translate(0,0)"/>
<path d="" fill="#EFEFED" transform="translate(0,0)"/>
<path d="" fill="#F8FBF8" transform="translate(0,0)"/>
<path d="" fill="#F7F9F9" transform="translate(0,0)"/>
<path d="" fill="#F2F3F3" transform="translate(0,0)"/>
<path d="" fill="#E7E6E7" transform="translate(0,0)"/>
<path d="" fill="#F8F7F8" transform="translate(0,0)"/>
<path d="" fill="#000000" transform="translate(0,0)"/>
<path d="" fill="#FAFAF8" transform="translate(0,0)"/>
<path d="" fill="#E4E8E6" transform="translate(0,0)"/>
<path d="" fill="#E7E7E9" transform="translate(0,0)"/>
<path d="" fill="#EAEBEB" transform="translate(0,0)"/>
<path d="" fill="#EEEEED" transform="translate(0,0)"/>
<path d="" fill="#000000" transform="translate(0,0)"/>
<path d="" fill="#F2F3F5" transform="translate(0,0)"/>
<path d="" fill="#EDECEC" transform="translate(0,0)"/>
<path d="" fill="#09090B" transform="translate(0,0)"/>
<path d="" fill="#030402" transform="translate(0,0)"/>
<path d="" fill="#FAF8F7" transform="translate(0,0)"/>
<path d="" fill="#F0F0F2" transform="translate(0,0)"/>
<path d="" fill="#F6F8F7" transform="translate(0,0)"/>
<path d="" fill="#F3F5F4" transform="translate(0,0)"/>
<path d="" fill="#EBEEEB" transform="translate(0,0)"/>
<path d="" fill="#ECEAEA" transform="translate(0,0)"/>
<path d="" fill="#F9F8F8" transform="translate(0,0)"/>
<path d="" fill="#EFEFEF" transform="translate(0,0)"/>
<path d="" fill="#F1EFF1" transform="translate(0,0)"/>
<path d="" fill="#000000" transform="translate(0,0)"/>
<path d="" fill="#EDEEEE" transform="translate(0,0)"/>
<path d="" fill="#EFEFF1" transform="translate(0,0)"/>
<path d="" fill="#FAFBF9" transform="translate(0,0)"/>
<path d="" fill="#F9FAF8" transform="translate(0,0)"/>
<path d="" fill="#EDEDEB" transform="translate(0,0)"/>
<path d="" fill="#F6F5F6" transform="translate(0,0)"/>
<path d="" fill="#F6F7F6" transform="translate(0,0)"/>
<path d="" fill="#F4F6F5" transform="translate(0,0)"/>
<path d="" fill="#F4F7F8" transform="translate(0,0)"/>
<path d="" fill="#F6F6F6" transform="translate(0,0)"/>
<path d="" fill="#F2F0F4" transform="translate(0,0)"/>
<path d="" fill="#EEF0ED" transform="translate(0,0)"/>
<path d="" fill="#F5F6F5" transform="translate(0,0)"/>
<path d="" fill="#030203" transform="translate(0,0)"/>
<path d="" fill="#F2F3F3" transform="translate(0,0)"/>
<path d="" fill="#EEEDEF" transform="translate(0,0)"/>
<path d="" fill="#F1F0F0" transform="translate(0,0)"/>
<path d="" fill="#F2F4F1" transform="translate(0,0)"/>
<path d="" fill="#F6F7F5" transform="translate(0,0)"/>
<path d="" fill="#F4F5F4" transform="translate(0,0)"/>
<path d="" fill="#F8F7F5" transform="translate(0,0)"/>
<path d="" fill="#F5F8F8" transform="translate(0,0)"/>
<path d="" fill="#F1F3F3" transform="translate(0,0)"/>
<path d="" fill="#F7F8F7" transform="translate(0,0)"/>
<path d="" fill="#F4F5F4" transform="translate(0,0)"/>
<path d="" fill="#C9C8CA" transform="translate(0,0)"/>
<path d="" fill="#F9F7F8" transform="translate(0,0)"/>
<path d="" fill="#F6F7FA" transform="translate(0,0)"/>
<path d="" fill="#F7F7F8" transform="translate(0,0)"/>
<path d="" fill="#EFEFEE" transform="translate(0,0)"/>
<path d="" fill="#EEF0EF" transform="translate(0,0)"/>
<path d="" fill="#F5F6F7" transform="translate(0,0)"/>
<path d="" fill="#F7F8FA" transform="translate(0,0)"/>
<path d="" fill="#F7F6F8" transform="translate(0,0)"/>
<path d="" fill="#EDEEEC" transform="translate(0,0)"/>
<path d="" fill="#EFF0F0" transform="translate(0,0)"/>
<path d="" fill="#F1EFF0" transform="translate(0,0)"/>
<path d="" fill="#F8F8F5" transform="translate(0,0)"/>
<path d="" fill="#F1F1F5" transform="translate(0,0)"/>
<path d="" fill="#737371" transform="translate(0,0)"/>
<path d="" fill="#F1F2F1" transform="translate(0,0)"/>
<path d="" fill="#EEEDEE" transform="translate(0,0)"/>
<path d="" fill="#F1F2F0" transform="translate(0,0)"/>
<path d="" fill="#F7F8F7" transform="translate(0,0)"/>
<path d="" fill="#F4F4F3" transform="translate(0,0)"/>
<path d="" fill="#F3F3F3" transform="translate(0,0)"/>
<path d="" fill="#F7F9F8" transform="translate(0,0)"/>
<path d="" fill="#F1F1F0" transform="translate(0,0)"/>
<path d="" fill="#F4FAF6" transform="translate(0,0)"/>
<path d="" fill="#EDEEEF" transform="translate(0,0)"/>
<path d="" fill="#010301" transform="translate(0,0)"/>
<path d="" fill="#F5F4F6" transform="translate(0,0)"/>
<path d="" fill="#F9FAFB" transform="translate(0,0)"/>
<path d="" fill="#F5F3F4" transform="translate(0,0)"/>
<path d="" fill="#F9F7F6" transform="translate(0,0)"/>
<path d="" fill="#ECEDED" transform="translate(0,0)"/>
<path d="" fill="#F7F6F5" transform="translate(0,0)"/>
<path d="" fill="#F1F2F2" transform="translate(0,0)"/>
<path d="" fill="#F7F6F7" transform="translate(0,0)"/>
<path d="" fill="#F6F6F4" transform="translate(0,0)"/>
<path d="" fill="#F7F7F5" transform="translate(0,0)"/>
<path d="" fill="#F6F8F5" transform="translate(0,0)"/>
<path d="" fill="#000000" transform="translate(0,0)"/>
<path d="" fill="#FAF9F6" transform="translate(0,0)"/>
<path d="" fill="#F0EFF0" transform="translate(0,0)"/>
<path d="" fill="#EEEDEE" transform="translate(0,0)"/>
<path d="" fill="#FAFAFA" transform="translate(0,0)"/>
<path d="" fill="#EDEEED" transform="translate(0,0)"/>
<path d="" fill="#F1F3F3" transform="translate(0,0)"/>
<path d="" fill="#F2F0EF" transform="translate(0,0)"/>
<path d="" fill="#F1F3F5" transform="translate(0,0)"/>
<path d="" fill="#F2EFF0" transform="translate(0,0)"/>
<path d="" fill="#F5F7F7" transform="translate(0,0)"/>
<path d="" fill="#F2F2F2" transform="translate(0,0)"/>
<path d="" fill="#F6F7F7" transform="translate(0,0)"/>
<path d="" fill="#EEF2EF" transform="translate(0,0)"/>
<path d="" fill="#1F1F1D" transform="translate(0,0)"/>
<path d="" fill="#F6F7F7" transform="translate(0,0)"/>
<path d="" fill="#F2F1F0" transform="translate(0,0)"/>
<path d="" fill="#040304" transform="translate(0,0)"/>
<path d="" fill="#F8F9FA" transform="translate(0,0)"/>
<path d="" fill="#F5F7FC" transform="translate(0,0)"/>
<path d="" fill="#F7F8F8" transform="translate(0,0)"/>
<path d="" fill="#ECEEF0" transform="translate(0,0)"/>
<path d="" fill="#E6E8E6" transform="translate(0,0)"/>
<path d="" fill="#EEEFED" transform="translate(0,0)"/>
<path d="" fill="#EFF2F3" transform="translate(0,0)"/>
<path d="" fill="#F1F5F4" transform="translate(0,0)"/>
<path d="" fill="#F1F1F2" transform="translate(0,0)"/>
<path d="" fill="#F6F6F7" transform="translate(0,0)"/>
<path d="" fill="#F5F6F9" transform="translate(0,0)"/>
<path d="" fill="#F6F5F7" transform="translate(0,0)"/>
<path d="" fill="#000001" transform="translate(0,0)"/>
<path d="" fill="#F5F7F6" transform="translate(0,0)"/>
<path d="" fill="#F5FAF9" transform="translate(0,0)"/>
<path d="" fill="#F6F8F7" transform="translate(0,0)"/>
<path d="" fill="#F8FAFB" transform="translate(0,0)"/>
<path d="" fill="#EFEFED" transform="translate(0,0)"/>
<path d="" fill="#F9F9FB" transform="translate(0,0)"/>
<path d="" fill="#F7F8F7" transform="translate(0,0)"/>
<path d="" fill="#F6F4F4" transform="translate(0,0)"/>
<path d="" fill="#F9FAF9" transform="translate(0,0)"/>
<path d="" fill="#F4F3F3" transform="translate(0,0)"/>
<path d="" fill="#F5F8F9" transform="translate(0,0)"/>
<path d="" fill="#FBFDFA" transform="translate(0,0)"/>
<path d="" fill="#F3F6F5" transform="translate(0,0)"/>
<path d="" fill="#F5F6F7" transform="translate(0,0)"/>
<path d="" fill="#F6F9F9" transform="translate(0,0)"/>
<path d="" fill="#F3F6F4" transform="translate(0,0)"/>
<path d="" fill="#F4F6F5" transform="translate(0,0)"/>
<path d="" fill="#575957" transform="translate(0,0)"/>
<path d="" fill="#F7F8F7" transform="translate(0,0)"/>
<path d="" fill="#EEEEEF" transform="translate(0,0)"/>
<path d="" fill="#F6F7F6" transform="translate(0,0)"/>
<path d="" fill="#000000" transform="translate(0,0)"/>
<path d="" fill="#F3F4F5" transform="translate(0,0)"/>
<path d="" fill="#F2F2F2" transform="translate(0,0)"/>
<path d="" fill="#F5F5F4" transform="translate(0,0)"/>
<path d="" fill="#F7FAF9" transform="translate(0,0)"/>
<path d="" fill="#EDECEE" transform="translate(0,0)"/>
<path d="" fill="#F1F3F2" transform="translate(0,0)"/>
<path d="" fill="#EEEFED" transform="translate(0,0)"/>
<path d="" fill="#F6F3F6" transform="translate(0,0)"/>
<path d="" fill="#F2F5F1" transform="translate(0,0)"/>
<path d="" fill="#ECEDEE" transform="translate(0,0)"/>
<path d="" fill="#F1F3F0" transform="translate(0,0)"/>
<path d="" fill="#EFEEED" transform="translate(0,0)"/>
<path d="" fill="#000000" transform="translate(0,0)"/>
<path d="" fill="#F9F9F9" transform="translate(0,0)"/>
<path d="" fill="#030305" transform="translate(0,0)"/>
<path d="" fill="#F8F7F9" transform="translate(0,0)"/>
<path d="" fill="#F0EEF3" transform="translate(0,0)"/>
<path d="" fill="#EEF0F0" transform="translate(0,0)"/>
<path d="" fill="#EFEDEF" transform="translate(0,0)"/>
<path d="" fill="#ECEDED" transform="translate(0,0)"/>
<path d="" fill="#F2F2F2" transform="translate(0,0)"/>
<path d="" fill="#F2F4F2" transform="translate(0,0)"/>
<path d="" fill="#EDEDED" transform="translate(0,0)"/>
<path d="" fill="#F7F8F6" transform="translate(0,0)"/>
<path d="" fill="#F5F4F5" transform="translate(0,0)"/>
<path d="" fill="#F4F5F6" transform="translate(0,0)"/>
<path d="" fill="#F4F3EF" transform="translate(0,0)"/>
<path d="" fill="#F1F1F1" transform="translate(0,0)"/>
<path d="" fill="#EDEBEA" transform="translate(0,0)"/>
<path d="" fill="#F6F9FA" transform="translate(0,0)"/>
<path d="" fill="#F0F0F0" transform="translate(0,0)"/>
<path d="" fill="#F3F4F4" transform="translate(0,0)"/>
<path d="" fill="#F6F6F9" transform="translate(0,0)"/>
<path d="" fill="#F4F4F1" transform="translate(0,0)"/>
<path d="" fill="#F7F8F7" transform="translate(0,0)"/>
<path d="" fill="#FAFDFA" transform="translate(0,0)"/>
<path d="" fill="#F3F3F2" transform="translate(0,0)"/>
<path d="" fill="#F2F2F3" transform="translate(0,0)"/>
<path d="" fill="#F5F5F6" transform="translate(0,0)"/>
<path d="" fill="#F4F5F5" transform="translate(0,0)"/>
<path d="" fill="#F4F4F4" transform="translate(0,0)"/>
<path d="" fill="#000000" transform="translate(0,0)"/>
<path d="" fill="#F3F2F0" transform="translate(0,0)"/>
<path d="" fill="#F6F2F4" transform="translate(0,0)"/>
<path d="" fill="#EFEFF0" transform="translate(0,0)"/>
<path d="" fill="#F5F7F6" transform="translate(0,0)"/>
<path d="" fill="#F0F1F1" transform="translate(0,0)"/>
<path d="" fill="#000000" transform="translate(0,0)"/>
<path d="" fill="#F2F3F7" transform="translate(0,0)"/>
<path d="" fill="#F4F2F3" transform="translate(0,0)"/>
<path d="" fill="#EFF2F3" transform="translate(0,0)"/>
<path d="" fill="#F0F5F3" transform="translate(0,0)"/>
<path d="" fill="#000000" transform="translate(0,0)"/>
<path d="" fill="#F1F4F5" transform="translate(0,0)"/>
<path d="" fill="#F2F1F2" transform="translate(0,0)"/>
<path d="" fill="#F9F8FA" transform="translate(0,0)"/>
<path d="" fill="#F2F5F3" transform="translate(0,0)"/>
<path d="" fill="#F3F7F5" transform="translate(0,0)"/>
<path d="" fill="#F2F2F6" transform="translate(0,0)"/>
<path d="" fill="#F4F4F4" transform="translate(0,0)"/>
<path d="" fill="#0B0B0A" transform="translate(0,0)"/>
<path d="" fill="#F9F6F8" transform="translate(0,0)"/>
<path d="" fill="#F6F6F6" transform="translate(0,0)"/>
<path d="" fill="#F8FBF9" transform="translate(0,0)"/>
<path d="" fill="#201F1E" transform="translate(0,0)"/>
<path d="" fill="#F6F6F5" transform="translate(0,0)"/>
<path d="" fill="#F1F4F3" transform="translate(0,0)"/>
<path d="" fill="#EEEEEE" transform="translate(0,0)"/>
<path d="" fill="#EFF2F2" transform="translate(0,0)"/>
<path d="" fill="#F5F4F1" transform="translate(0,0)"/>
<path d="" fill="#000000" transform="translate(0,0)"/>
<path d="" fill="#F8F8FA" transform="translate(0,0)"/>
<path d="" fill="#18191A" transform="translate(0,0)"/>
<path d="" fill="#E9E9EA" transform="translate(0,0)"/>
<path d="" fill="#F2F5F3" transform="translate(0,0)"/>
<path d="" fill="#EFF2F0" transform="translate(0,0)"/>
<path d="" fill="#F2EFF2" transform="translate(0,0)"/>
<path d="" fill="#000100" transform="translate(0,0)"/>
<path d="" fill="#F4F4F4" transform="translate(0,0)"/>
<path d="" fill="#F3F2F0" transform="translate(0,0)"/>
<path d="" fill="#F4F2F6" transform="translate(0,0)"/>
<path d="" fill="#EDECED" transform="translate(0,0)"/>
<path d="" fill="#EDF0F1" transform="translate(0,0)"/>
<path d="" fill="#F4F5F4" transform="translate(0,0)"/>
<path d="" fill="#F4F4F1" transform="translate(0,0)"/>
<path d="" fill="#F5F7F5" transform="translate(0,0)"/>
<path d="" fill="#F0EFF0" transform="translate(0,0)"/>
<path d="" fill="#F6F5F6" transform="translate(0,0)"/>
<path d="" fill="#F7F7F7" transform="translate(0,0)"/>
<path d="" fill="#121112" transform="translate(0,0)"/>
<path d="" fill="#ECEDF1" transform="translate(0,0)"/>
<path d="" fill="#F4F3F3" transform="translate(0,0)"/>
<path d="" fill="#060506" transform="translate(0,0)"/>
<path d="" fill="#F9FAF6" transform="translate(0,0)"/>
<path d="" fill="#F4F7F6" transform="translate(0,0)"/>
<path d="" fill="#F5F4F6" transform="translate(0,0)"/>
<path d="" fill="#F8F9F9" transform="translate(0,0)"/>
<path d="" fill="#F2F2F0" transform="translate(0,0)"/>
<path d="" fill="#010100" transform="translate(0,0)"/>
<path d="" fill="#F3F4F1" transform="translate(0,0)"/>
<path d="" fill="#F4F4F6" transform="translate(0,0)"/>
<path d="" fill="#EFF2F1" transform="translate(0,0)"/>
<path d="" fill="#EFEFF0" transform="translate(0,0)"/>
<path d="" fill="#F4F1F2" transform="translate(0,0)"/>
<path d="" fill="#ECEDED" transform="translate(0,0)"/>
<path d="" fill="#CACBCB" transform="translate(0,0)"/>
<path d="" fill="#ECEEED" transform="translate(0,0)"/>
<path d="" fill="#F3F6F7" transform="translate(0,0)"/>
<path d="" fill="#252624" transform="translate(0,0)"/>
<path d="" fill="#EDF0EF" transform="translate(0,0)"/>
<path d="" fill="#F6F6F5" transform="translate(0,0)"/>
<path d="" fill="#F9FCF9" transform="translate(0,0)"/>
<path d="" fill="#E6E7E5" transform="translate(0,0)"/>
<path d="" fill="#F8F9F8" transform="translate(0,0)"/>
<path d="" fill="#EEF2F0" transform="translate(0,0)"/>
<path d="" fill="#F6F8F5" transform="translate(0,0)"/>
<path d="" fill="#F1F0F1" transform="translate(0,0)"/>
<path d="" fill="#040504" transform="translate(0,0)"/>
<path d="" fill="#F5F7F8" transform="translate(0,0)"/>
<path d="" fill="#F4F3F4" transform="translate(0,0)"/>
<path d="" fill="#F3F3F4" transform="translate(0,0)"/>
<path d="" fill="#F0F2F1" transform="translate(0,0)"/>
<path d="" fill="#F6F5F5" transform="translate(0,0)"/>
<path d="" fill="#EFEDED" transform="translate(0,0)"/>
<path d="" fill="#000000" transform="translate(0,0)"/>
<path d="" fill="#EEEEED" transform="translate(0,0)"/>
<path d="" fill="#000000" transform="translate(0,0)"/>
<path d="" fill="#F7F7F8" transform="translate(0,0)"/>
<path d="" fill="#F3F4F2" transform="translate(0,0)"/>
<path d="" fill="#EFF0F1" transform="translate(0,0)"/>
<path d="" fill="#F4F3F3" transform="translate(0,0)"/>
<path d="" fill="#010001" transform="translate(0,0)"/>
<path d="" fill="#050703" transform="translate(0,0)"/>
<path d="" fill="#000000" transform="translate(0,0)"/>
<path d="" fill="#F1F1F0" transform="translate(0,0)"/>
<path d="" fill="#F1F2F3" transform="translate(0,0)"/>
<path d="" fill="#FAFAFB" transform="translate(0,0)"/>
<path d="" fill="#F1F2F0" transform="translate(0,0)"/>
<path d="" fill="#000000" transform="translate(0,0)"/>
<path d="" fill="#F6F9F6" transform="translate(0,0)"/>
<path d="" fill="#292828" transform="translate(0,0)"/>
<path d="" fill="#282829" transform="translate(0,0)"/>
<path d="" fill="#F9F9FB" transform="translate(0,0)"/>
<path d="" fill="#EFEFEF" transform="translate(0,0)"/>
<path d="" fill="#000000" transform="translate(0,0)"/>
<path d="" fill="#EEECEF" transform="translate(0,0)"/>
<path d="" fill="#F4F3F3" transform="translate(0,0)"/>
<path d="" fill="#121211" transform="translate(0,0)"/>
<path d="" fill="#000000" transform="translate(0,0)"/>
<path d="" fill="#EFECF0" transform="translate(0,0)"/>
<path d="" fill="#EAE9EB" transform="translate(0,0)"/>
<path d="" fill="#E8E8E7" transform="translate(0,0)"/>
<path d="" fill="#ECEAEE" transform="translate(0,0)"/>
<path d="" fill="#F3F4F2" transform="translate(0,0)"/>
<path d="" fill="#F3F0F1" transform="translate(0,0)"/>
<path d="" fill="#ECEDEE" transform="translate(0,0)"/>
<path d="" fill="#F5F5F5" transform="translate(0,0)"/>
<path d="" fill="#000000" transform="translate(0,0)"/>
<path d="" fill="#F7F8F7" transform="translate(0,0)"/>
<path d="" fill="#F3F2F0" transform="translate(0,0)"/>
<path d="" fill="#BBBCBD" transform="translate(0,0)"/>
<path d="" fill="#030504" transform="translate(0,0)"/>
<path d="" fill="#F7F7F6" transform="translate(0,0)"/>
<path d="" fill="#050303" transform="translate(0,0)"/>
<path d="" fill="#000000" transform="translate(0,0)"/>
<path d="" fill="#F4F3F1" transform="translate(0,0)"/>
<path d="" fill="#EDEEF0" transform="translate(0,0)"/>
<path d="" fill="#000000" transform="translate(0,0)"/>
<path d="" fill="#F6F6F6" transform="translate(0,0)"/>
<path d="" fill="#F1EDF0" transform="translate(0,0)"/>
<path d="" fill="#EDF1F1" transform="translate(0,0)"/>
<path d="" fill="#EBEBED" transform="translate(0,0)"/>
<path d="" fill="#000000" transform="translate(0,0)"/>
<path d="" fill="#F4F4F6" transform="translate(0,0)"/>
<path d="" fill="#000000" transform="translate(0,0)"/>
<path d="" fill="#F4F5F7" transform="translate(0,0)"/>
<path d="" fill="#F6F6F7" transform="translate(0,0)"/>
<path d="" fill="#DFDFE2" transform="translate(0,0)"/>
<path d="" fill="#EFEEEB" transform="translate(0,0)"/>
<path d="" fill="#E4E4E7" transform="translate(0,0)"/>
<path d="" fill="#F2F3F5" transform="translate(0,0)"/>
<path d="" fill="#E9E6EA" transform="translate(0,0)"/>
<path d="" fill="#DBDBDC" transform="translate(0,0)"/>
<path d="" fill="#F6F4F6" transform="translate(0,0)"/>
<path d="" fill="#ECECEC" transform="translate(0,0)"/>
<path d="" fill="#EEEEEF" transform="translate(0,0)"/>
<path d="" fill="#F0F2F2" transform="translate(0,0)"/>
<path d="" fill="#F5F2F5" transform="translate(0,0)"/>
<path d="" fill="#EFEEF0" transform="translate(0,0)"/>
<path d="" fill="#000200" transform="translate(0,0)"/>
<path d="" fill="#E3E5E6" transform="translate(0,0)"/>
<path d="" fill="#F8F6F6" transform="translate(0,0)"/>
<path d="" fill="#F5F4F5" transform="translate(0,0)"/>
<path d="" fill="#F6F6F6" transform="translate(0,0)"/>
<path d="" fill="#F4F2F1" transform="translate(0,0)"/>
<path d="" fill="#F5F4F5" transform="translate(0,0)"/>
<path d="" fill="#F5F5F6" transform="translate(0,0)"/>
<path d="" fill="#F2EFF0" transform="translate(0,0)"/>
<path d="" fill="#F4F6F4" transform="translate(0,0)"/>
<path d="" fill="#F5F6F5" transform="translate(0,0)"/>
<path d="" fill="#EDEFEF" transform="translate(0,0)"/>
<path d="" fill="#F5F6F5" transform="translate(0,0)"/>
<path d="" fill="#EAEBEB" transform="translate(0,0)"/>
<path d="" fill="#F2F3F5" transform="translate(0,0)"/>
<path d="" fill="#F1F2EF" transform="translate(0,0)"/>
<path d="" fill="#F3F1F2" transform="translate(0,0)"/>
<path d="" fill="#F7F8F7" transform="translate(0,0)"/>
<path d="" fill="#F2F4F2" transform="translate(0,0)"/>
<path d="" fill="#F4F7F7" transform="translate(0,0)"/>
<path d="" fill="#F5F5F7" transform="translate(0,0)"/>
<path d="" fill="#F0EFEE" transform="translate(0,0)"/>
<path d="" fill="#F5F4F9" transform="translate(0,0)"/>
<path d="" fill="#F6F7F4" transform="translate(0,0)"/>
<path d="" fill="#000000" transform="translate(0,0)"/>
<path d="" fill="#F0F5F3" transform="translate(0,0)"/>
<path d="" fill="#F6F9F7" transform="translate(0,0)"/>
<path d="" fill="#F5F5F4" transform="translate(0,0)"/>
<path d="" fill="#F5F4F5" transform="translate(0,0)"/>
<path d="" fill="#F4F7F6" transform="translate(0,0)"/>
<path d="" fill="#F4F5F4" transform="translate(0,0)"/>
<path d="" fill="#FAF8FA" transform="translate(0,0)"/>
<path d="" fill="#F6F3F3" transform="translate(0,0)"/>
<path d="" fill="#F6F7F9" transform="translate(0,0)"/>
<path d="" fill="#F4F4F5" transform="translate(0,0)"/>
<path d="" fill="#F5F4F8" transform="translate(0,0)"/>
<path d="" fill="#F1F0F1" transform="translate(0,0)"/>
<path d="" fill="#F5F3F5" transform="translate(0,0)"/>
<path d="" fill="#F8F7F5" transform="translate(0,0)"/>
<path d="" fill="#F5F5F5" transform="translate(0,0)"/>
<path d="" fill="#F4F6F6" transform="translate(0,0)"/>
<path d="" fill="#F3F6F6" transform="translate(0,0)"/>
<path d="" fill="#E2E1E4" transform="translate(0,0)"/>
<path d="" fill="#F5F3F6" transform="translate(0,0)"/>
<path d="" fill="#F6F6F5" transform="translate(0,0)"/>
<path d="" fill="#F3F4F4" transform="translate(0,0)"/>
<path d="" fill="#F5F3F4" transform="translate(0,0)"/>
<path d="" fill="#EDEEEF" transform="translate(0,0)"/>
<path d="" fill="#424243" transform="translate(0,0)"/>
<path d="" fill="#C4C4C5" transform="translate(0,0)"/>
<path d="" fill="#F0F2F2" transform="translate(0,0)"/>
<path d="" fill="#0D0D0C" transform="translate(0,0)"/>
<path d="" fill="#D4D5D6" transform="translate(0,0)"/>
<path d="" fill="#DDDDDF" transform="translate(0,0)"/>
<path d="" fill="#DFE0E2" transform="translate(0,0)"/>
<path d="" fill="#E7E6E8" transform="translate(0,0)"/>
<path d="" fill="#EBEDEC" transform="translate(0,0)"/>
<path d="" fill="#000000" transform="translate(0,0)"/>
<path d="" fill="#E9EBEE" transform="translate(0,0)"/>
<path d="" fill="#EFF1F0" transform="translate(0,0)"/>
<path d="" fill="#F6F5F7" transform="translate(0,0)"/>
<path d="" fill="#F1F1F0" transform="translate(0,0)"/>
<path d="" fill="#F0F1F3" transform="translate(0,0)"/>
<path d="" fill="#F3F6F4" transform="translate(0,0)"/>
<path d="" fill="#ECEEEF" transform="translate(0,0)"/>
<path d="" fill="#EFF1F1" transform="translate(0,0)"/>
<path d="" fill="#F7FBFA" transform="translate(0,0)"/>
<path d="" fill="#EFF2F0" transform="translate(0,0)"/>
<path d="" fill="#EDEFED" transform="translate(0,0)"/>
<path d="" fill="#ECECEA" transform="translate(0,0)"/>
<path d="" fill="#ECEDEC" transform="translate(0,0)"/>
<path d="" fill="#EDEBEA" transform="translate(0,0)"/>
<path d="" fill="#EFEDED" transform="translate(0,0)"/>
<path d="" fill="#F0F0F0" transform="translate(0,0)"/>
<path d="" fill="#ECEBEB" transform="translate(0,0)"/>
<path d="" fill="#EDEEF0" transform="translate(0,0)"/>
<path d="" fill="#EDECEB" transform="translate(0,0)"/>
<path d="" fill="#F1F2F0" transform="translate(0,0)"/>
<path d="" fill="#F1F2F0" transform="translate(0,0)"/>
<path d="" fill="#000000" transform="translate(0,0)"/>
<path d="" fill="#000000" transform="translate(0,0)"/>
<path d="" fill="#F8F8F6" transform="translate(0,0)"/>
<path d="" fill="#EFEEEE" transform="translate(0,0)"/>
<path d="" fill="#F6F8F6" transform="translate(0,0)"/>
<path d="" fill="#F2EFF0" transform="translate(0,0)"/>
<path d="" fill="#EFF1EE" transform="translate(0,0)"/>
<path d="" fill="#F0EFF0" transform="translate(0,0)"/>
<path d="" fill="#EDEEEE" transform="translate(0,0)"/>
<path d="" fill="#F6F6F5" transform="translate(0,0)"/>
<path d="" fill="#EFF0EF" transform="translate(0,0)"/>
<path d="" fill="#F0F1F1" transform="translate(0,0)"/>
<path d="" fill="#EEEDEC" transform="translate(0,0)"/>
<path d="" fill="#EFF0F0" transform="translate(0,0)"/>
<path d="" fill="#F1F3F4" transform="translate(0,0)"/>
<path d="" fill="#000100" transform="translate(0,0)"/>
<path d="" fill="#F5F4F4" transform="translate(0,0)"/>
<path d="" fill="#F0F3F2" transform="translate(0,0)"/>
<path d="" fill="#F3F3F3" transform="translate(0,0)"/>
<path d="" fill="#F1F1F3" transform="translate(0,0)"/>
<path d="" fill="#F3F5F3" transform="translate(0,0)"/>
<path d="" fill="#F1F1F3" transform="translate(0,0)"/>
<path d="" fill="#F2F2F2" transform="translate(0,0)"/>
<path d="" fill="#F3F4F3" transform="translate(0,0)"/>
<path d="" fill="#F1F3F2" transform="translate(0,0)"/>
<path d="" fill="#0C0D0A" transform="translate(0,0)"/>
<path d="" fill="#000000" transform="translate(0,0)"/>
<path d="" fill="#000000" transform="translate(0,0)"/>
<path d="" fill="#BDBFBF" transform="translate(0,0)"/>
<path d="" fill="#000000" transform="translate(0,0)"/>
<path d="" fill="#000000" transform="translate(0,0)"/>
<path d="" fill="#030203" transform="translate(0,0)"/>
<path d="" fill="#050605" transform="translate(0,0)"/>
<path d="" fill="#000001" transform="translate(0,0)"/>
<path d="" fill="#000000" transform="translate(0,0)"/>
<path d="" fill="#000000" transform="translate(0,0)"/>
<path d="" fill="#000000" transform="translate(0,0)"/>
<path d="" fill="#000000" transform="translate(0,0)"/>
<path d="" fill="#020401" transform="translate(0,0)"/>
<path d="" fill="#000000" transform="translate(0,0)"/>
<path d="" fill="#010200" transform="translate(0,0)"/>
<path d="" fill="#000000" transform="translate(0,0)"/>
<path d="" fill="#010000" transform="translate(0,0)"/>
<path d="" fill="#000000" transform="translate(0,0)"/>
<path d="" fill="#3C393B" transform="translate(0,0)"/>
<path d="" fill="#0F1010" transform="translate(0,0)"/>
<path d="" fill="#1D1D1A" transform="translate(0,0)"/>
<path d="" fill="#000000" transform="translate(0,0)"/>
<path d="" fill="#000000" transform="translate(0,0)"/>
<path d="" fill="#363636" transform="translate(0,0)"/>
<path d="" fill="#151614" transform="translate(0,0)"/>
<path d="" fill="#242424" transform="translate(0,0)"/>
</svg>
