<?xml version="1.0" encoding="UTF-8"?>
<svg version="1.1" xmlns="http://www.w3.org/2000/svg" width="500" height="500">
<path d="M0 0 C0.63615234 0.28262695 1.27230469 0.56525391 1.92773438 0.85644531 C18.61724126 8.28383917 33.99777694 17.61091287 49 28 C49.79792969 28.54785156 50.59585938 29.09570312 51.41796875 29.66015625 C52.20107422 30.32337891 52.20107422 30.32337891 53 31 C53 31.66 53 32.32 53 33 C53.55558594 33.23847656 54.11117187 33.47695312 54.68359375 33.72265625 C57.53061436 35.29259847 59.66928174 37.23920449 62.0625 39.4375 C62.91972656 40.21996094 63.77695312 41.00242188 64.66015625 41.80859375 C65.81837891 42.89333984 65.81837891 42.89333984 67 44 C67.59683594 44.54785156 68.19367188 45.09570312 68.80859375 45.66015625 C70 47 70 47 70 49 C70.66 49 71.32 49 72 49 C72 49.66 72 50.32 72 51 C72.66 51 73.32 51 74 51 C80.0614082 58.07370041 85.21143401 66.03062327 90 74 C90.51304687 74.83660156 91.02609375 75.67320312 91.5546875 76.53515625 C106.64633955 102.45682803 108.00844155 133.27848308 100.8984375 161.9296875 C94.82623708 182.68077241 82.32163746 201.8602481 66 216 C65.34 216 64.68 216 64 216 C64 216.66 64 217.32 64 218 C61.525 218.99 61.525 218.99 59 220 C59 220.66 59 221.32 59 222 C56.76177123 223.6331352 54.54172566 225.11173594 52.1875 226.5625 C51.47335937 227.00360107 50.75921875 227.44470215 50.0234375 227.89916992 C37.52667607 235.44929662 24.24998483 241.81964676 10.07421875 245.46484375 C8.69175806 245.82152382 7.31390939 246.19658384 5.94140625 246.58984375 C-19.69728055 253.78749344 -52.39173718 252.6998362 -78 246 C-79.25200195 245.68651611 -79.25200195 245.68651611 -80.52929688 245.36669922 C-98.66015298 240.72978487 -115.73779817 233.1872533 -132 224 C-133.32841863 223.32359319 -134.65980136 222.65275557 -136 222 C-136 221.34 -136 220.68 -136 220 C-136.61875 219.855625 -137.2375 219.71125 -137.875 219.5625 C-140 219 -140 219 -142 218 C-142 217.34 -142 216.68 -142 216 C-143.0828125 215.6596875 -143.0828125 215.6596875 -144.1875 215.3125 C-147.53209313 213.75168987 -149.51603959 211.6968713 -152 209 C-150.71451591 207.66070495 -149.42141845 206.32871357 -148.125 205 C-147.04605469 203.88625 -147.04605469 203.88625 -145.9453125 202.75 C-144 201 -144 201 -142 201 C-142 200.34 -142 199.68 -142 199 C-141.34 199 -140.68 199 -140 199 C-140 198.34 -140 197.68 -140 197 C-139.34 197 -138.68 197 -138 197 C-137.7525 196.443125 -137.505 195.88625 -137.25 195.3125 C-135.77075182 192.57589087 -134.06532561 190.32349131 -132 188 C-131.34 188 -130.68 188 -130 188 C-129.01 186.02 -129.01 186.02 -128 184 C-124.10823108 185.38591771 -121.09971523 187.22277565 -117.75 189.625 C-87.20030587 210.17728814 -45.69406735 217.93739281 -9.60009766 211.86547852 C3.71367629 209.22715026 19.27459479 204.70327663 30.140625 196.35546875 C32 195 32 195 34 195 C34 194.34 34 193.68 34 193 C35.57421875 191.73828125 35.57421875 191.73828125 37.6875 190.3125 C40.68041289 188.16713766 42.81281967 186.17801772 44.875 183.125 C45.57625 182.09375 46.2775 181.0625 47 180 C47.66 180 48.32 180 49 180 C49.24878906 179.33484375 49.49757813 178.6696875 49.75390625 177.984375 C50.99457805 175.01298549 52.39621738 172.1900066 53.86865234 169.3293457 C65.99169427 145.74507249 66.96006298 121.26814113 58.9375 96.0625 C55.77321587 87.58570215 50.94677843 77.75798692 44.35595703 71.41870117 C43 70 43 70 43 68 C42.34 68 41.68 68 41 68 C39.5546875 66.4609375 39.5546875 66.4609375 37.875 64.375 C34.75927751 60.6754895 31.49453234 57.9374622 27.50390625 55.2265625 C27.00761719 54.82179687 26.51132812 54.41703125 26 54 C26 53.34 26 52.68 26 52 C25.28714844 51.74605469 24.57429687 51.49210937 23.83984375 51.23046875 C20.76125392 49.89655431 18.30205751 48.24652881 15.5625 46.3125 C9.58261555 42.26019735 3.40520719 39.0331766 -3.10107422 35.91503906 C-8.51731871 33.30510279 -13.88631377 30.59686298 -19.25097656 27.8828125 C-20.77593549 27.11309565 -22.30555146 26.35261911 -23.8359375 25.59375 C-28.74637106 23.04880769 -32.17116258 20.83639946 -35 16 C-35.89869572 11.08124576 -35.56327549 7.24390003 -33.5 2.6875 C-22.85443576 -8.75648156 -12.90978891 -5.87074111 0 0 Z " fill="#070707" transform="translate(283,174)"/>
<path d="M0 0 C2.9595195 0.01069823 5.9184288 0.00006116 8.87792969 -0.01269531 C24.61505406 -0.02610801 39.45693955 1.47923866 54.84667969 4.94824219 C56.00272705 5.20806885 57.15877441 5.46789551 58.34985352 5.7355957 C74.48083168 9.48986428 89.57734598 15.3594003 104.59667969 22.26074219 C103.74901703 26.89670897 100.90430425 29.25340648 97.59667969 32.38574219 C93.61678972 35.94986903 93.61678972 35.94986903 90.59667969 40.26074219 C89.93667969 40.26074219 89.27667969 40.26074219 88.59667969 40.26074219 C88.59667969 40.92074219 88.59667969 41.58074219 88.59667969 42.26074219 C87.93667969 42.26074219 87.27667969 42.26074219 86.59667969 42.26074219 C86.59667969 42.92074219 86.59667969 43.58074219 86.59667969 44.26074219 C85.93667969 44.26074219 85.27667969 44.26074219 84.59667969 44.26074219 C84.32855469 44.85886719 84.06042969 45.45699219 83.78417969 46.07324219 C82.60581661 48.24391101 81.36606987 49.56891431 79.59667969 51.26074219 C75.20062475 49.80885178 70.81082943 48.34584803 66.44824219 46.79589844 C27.81860454 33.21324872 -19.07973005 30.39891646 -56.85644531 48.41308594 C-61.21145138 50.68171795 -65.31880578 53.19510153 -69.36425781 55.97558594 C-71.40332031 57.26074219 -71.40332031 57.26074219 -73.40332031 57.26074219 C-73.40332031 57.92074219 -73.40332031 58.58074219 -73.40332031 59.26074219 C-74.06332031 59.26074219 -74.72332031 59.26074219 -75.40332031 59.26074219 C-75.40332031 59.92074219 -75.40332031 60.58074219 -75.40332031 61.26074219 C-77.04785156 62.84667969 -77.04785156 62.84667969 -79.21582031 64.63574219 C-81.46582888 66.49640501 -83.30682317 68.12946922 -85.04003906 70.48730469 C-85.71486328 71.36515625 -85.71486328 71.36515625 -86.40332031 72.26074219 C-87.06332031 72.26074219 -87.72332031 72.26074219 -88.40332031 72.26074219 C-88.67402344 72.98132813 -88.94472656 73.70191406 -89.22363281 74.44433594 C-90.38969455 77.2282118 -91.76090359 79.71690206 -93.27832031 82.32324219 C-101.77932307 97.70402958 -104.10260272 116.5442411 -100.34082031 133.76074219 C-98.03046667 141.44349713 -94.16708345 149.61998619 -88.40332031 155.26074219 C-88.40332031 155.92074219 -88.40332031 156.58074219 -88.40332031 157.26074219 C-87.74332031 157.26074219 -87.08332031 157.26074219 -86.40332031 157.26074219 C-86.40332031 157.92074219 -86.40332031 158.58074219 -86.40332031 159.26074219 C-85.74332031 159.26074219 -85.08332031 159.26074219 -84.40332031 159.26074219 C-84.40332031 159.92074219 -84.40332031 160.58074219 -84.40332031 161.26074219 C-83.74332031 161.26074219 -83.08332031 161.26074219 -82.40332031 161.26074219 C-82.40332031 161.92074219 -82.40332031 162.58074219 -82.40332031 163.26074219 C-81.87609375 163.49535156 -81.34886719 163.72996094 -80.80566406 163.97167969 C-77.65157074 165.66412001 -74.84334595 167.77116376 -71.96582031 169.88574219 C-65.31368476 174.70130799 -58.45608686 179.05050422 -51.40332031 183.26074219 C-50.18411977 183.99827917 -48.96538293 184.73658315 -47.74707031 185.47558594 C-36.05136319 192.55464647 -24.16228116 199.28008215 -12.23925781 205.96679688 C-7.15574013 208.82317888 -2.10996031 211.73884417 2.90527344 214.71386719 C4.64074711 215.71132375 6.40342596 216.66350875 8.19433594 217.55761719 C13.68961572 220.30972478 16.40967709 222.39559887 18.59667969 228.26074219 C18.80849559 232.16107634 18.12660159 235.33913888 16.15917969 238.76074219 C14.59667969 240.26074219 14.59667969 240.26074219 12.59667969 240.26074219 C12.59667969 240.92074219 12.59667969 241.58074219 12.59667969 242.26074219 C10.69042969 243.76855469 10.69042969 243.76855469 8.09667969 245.38574219 C7.26136719 245.92457031 6.42605469 246.46339844 5.56542969 247.01855469 C0.97539734 248.93912085 -2.97919607 249.08734098 -7.63574219 247.49951172 C-9.93792157 246.49565443 -12.16883418 245.4070297 -14.40332031 244.26074219 C-15.17804688 243.87917969 -15.95277344 243.49761719 -16.75097656 243.10449219 C-18.64208701 242.17061048 -20.52374052 241.21761917 -22.40332031 240.26074219 C-22.40332031 239.60074219 -22.40332031 238.94074219 -22.40332031 238.26074219 C-22.94988281 238.14988281 -23.49644531 238.03902344 -24.05957031 237.92480469 C-32.23474476 235.60850526 -39.8856999 230.50477908 -47.12597656 226.16699219 C-49.93009565 224.53599086 -52.75467245 222.9738313 -55.60644531 221.42871094 C-90.53952619 202.44725309 -90.53952619 202.44725309 -104.40332031 190.26074219 C-104.40332031 189.60074219 -104.40332031 188.94074219 -104.40332031 188.26074219 C-104.95890625 188.02742187 -105.51449219 187.79410156 -106.08691406 187.55371094 C-121.71352206 178.83127039 -133.53078298 157.47894103 -139.40332031 141.26074219 C-145.90349596 116.72108826 -143.62930755 89.48276604 -131.18847656 67.16699219 C-129.0316038 63.46123926 -126.78332537 59.82721862 -124.40332031 56.26074219 C-123.96777832 55.60477051 -123.53223633 54.94879883 -123.08349609 54.27294922 C-121.91235081 52.56279387 -120.66333442 50.90651769 -119.40332031 49.26074219 C-118.74332031 49.26074219 -118.08332031 49.26074219 -117.40332031 49.26074219 C-117.11457031 48.66261719 -116.82582031 48.06449219 -116.52832031 47.44824219 C-115.40332031 45.26074219 -115.40332031 45.26074219 -113.40332031 42.26074219 C-112.74332031 42.26074219 -112.08332031 42.26074219 -111.40332031 42.26074219 C-111.40332031 41.60074219 -111.40332031 40.94074219 -111.40332031 40.26074219 C-110.74332031 40.26074219 -110.08332031 40.26074219 -109.40332031 40.26074219 C-109.40332031 39.60074219 -109.40332031 38.94074219 -109.40332031 38.26074219 C-104.93273208 34.26074219 -104.93273208 34.26074219 -102.40332031 34.26074219 C-102.40332031 33.60074219 -102.40332031 32.94074219 -102.40332031 32.26074219 C-101.00488281 31.05908203 -101.00488281 31.05908203 -99.02832031 29.72167969 C-98.29863037 29.22748535 -97.56894043 28.73329102 -96.81713867 28.22412109 C-96.02057861 27.69995605 -95.22401855 27.17579102 -94.40332031 26.63574219 C-93.58677979 26.09739746 -92.77023926 25.55905273 -91.92895508 25.00439453 C-73.89363864 13.31609864 -54.54194844 6.02925795 -33.40332031 2.26074219 C-32.45295898 2.08124023 -31.50259766 1.90173828 -30.5234375 1.71679688 C-20.35300729 0.00806748 -10.28970351 -0.04416182 0 0 Z " fill="#060606" transform="translate(262.4033203125,69.7392578125)"/>
</svg>
